<svg id="head" width="900" height="400" xmlns="http://www.w3.org/2000/svg">
        <g>
        <rect fill="none" id="canvas_background" height="602" width="802" y="-1" x="-1"/>
        <g display="none" overflow="visible" y="0" x="0" height="100%" width="100%" id="canvasGrid">
        <rect fill="url(#gridpattern)" stroke-width="0" y="0" x="0" height="100%" width="100%"/>
        </g>
        </g>
        <g>
        <g stroke="null" id="svg_42">
        <g stroke="null" transform="matrix(0.7830520541128735,0,0,0.7830520541128735,-6636.322314214616,-3120.547945566388) " id="svg_5">
            <g stroke="null" id="svg_6">
            <path stroke="null" id="svg_7" d="m9415.27932,4284.91713c0,0 -70.3561,29.3095 -128.2697,32.9134c-1.3428,-15.8657 -3.9684,-31.8572 -7.6636,-47.0695l0.0306,-1.9507l-134.4987,-20.7683c-0.2609,-0.2433 -0.3973,-0.3723 -0.3973,-0.3723c15.8954,1.5746 179.1801,-17.6187 261.7383,-36.2408c0,0 -58.3876,54.3611 -101.6752,68.4547c0.0001,0 40.2673,2.0136 110.7356,5.0335z" fill="#B8B448"/>
            <path stroke="null" id="svg_8" d="m8722.14072,4272.53723c-4.1461,14.8389 -6.7594,29.9852 -7.9088,45.2117c-57.6572,-3.9606 -126.9526,-32.8318 -126.9526,-32.8318c70.4683,-3.0199 110.7355,-5.0335 110.7355,-5.0335c-43.2875,-14.0935 -101.6755,-68.4547 -101.6755,-68.4547c82.5582,18.622 245.8432,37.8154 261.7387,36.2408c0,0 -0.1364,0.129 -0.3973,0.3723l-134.4987,20.7683l-1.0413,3.7269z" fill="#B8B448"/>
            <path stroke="null" id="svg_9" d="m9279.34612,4270.76103c-0.158,-0.6503 -0.3112,-1.3036 -0.4729,-1.9507l0,0l-110.2905,8.1328c-15.392,-17.2401 -26.1157,-29.2734 -26.1157,-29.2734l2.4109,0.3723l134.4987,20.7683l-0.0305,1.9507z" fill="#CDCC4C"/>
            <path stroke="null" id="svg_10" d="m8723.18192,4268.81033l134.4987,-20.7683l2.4109,-0.3723c0,0 -10.7848,12.1019 -26.2464,29.4199l-110.6632,-8.2793z" fill="#CDCC4C"/>
            <g stroke="null" id="svg_11">
            <path stroke="null" id="svg_12" d="m9232.66382,4245.06313c0.4864,-0.2464 1.0324,-1.038 1.1677,-1.6096c0.6731,-2.8406 1.2175,-5.6924 1.9622,-9.2865c-6.1769,5.6525 -11.8242,10.8205 -17.4715,15.9886c5.232,0.0003 9.7527,-2.7695 14.3416,-5.0925z" fill="none"/>
            <path stroke="null" id="svg_13" d="m8761.89402,4240.95353c0.1353,0.5713 0.6813,1.3629 1.1676,1.6093c4.5889,2.3229 9.1096,5.0928 14.3417,5.0923c-5.6473,-5.168 -11.2946,-10.3361 -17.4715,-15.9885c0.7446,3.5941 1.2892,6.4459 1.9622,9.2869z" fill="none"/>
            <path stroke="null" id="svg_14" d="m9000.35692,4283.77663c-0.0194,0.0146 -0.0384,0.0236 -0.0578,0.0381c0.0246,0 0.0496,-0.0005 0.0742,-0.0005c-0.0056,-0.0125 -0.0108,-0.0253 -0.0164,-0.0376z" fill="#1D301C"/>
            <g stroke="null" id="svg_15">
            <g stroke="null" id="svg_16">
                <g stroke="null" id="svg_17">
                <path stroke="null" id="svg_18" d="m9287.00962,4317.83053c-1.3428,-15.8657 -3.9684,-31.8572 -7.6636,-47.0695c-0.158,-0.6504 -0.3112,-1.3037 -0.473,-1.9508l-57.2826,4.224l-10.3766,0.7652l-16.4465,1.2126l-2.1272,0.1569l-7.1387,0.5264l-0.4836,0.0357l-2.4998,0.1843l-10.5314,0.7766l-3.4041,0.251l-18.2482,1.3458c-4.4916,0.3312 -8.9841,0.6443 -13.4774,0.9452c-8.3669,0.5603 -16.7365,1.0679 -25.1082,1.5239c-4.7958,0.2613 -9.5925,0.5018 -14.3895,0.7292c-6.9677,0.3302 -13.9368,0.6228 -20.9068,0.8826c-0.7081,0.0265 -1.4161,0.0576 -2.1244,0.0832c-0.6653,0.024 -1.3307,0.0432 -1.996,0.0668c-7.234,0.2549 -14.4687,0.4789 -21.7044,0.658c-8.3068,0.2057 -16.6143,0.3567 -24.9222,0.4606c-8.4436,0.1058 -16.8879,0.1748 -25.3322,0.1758c-0.0246,0 -0.0496,0.0005 -0.0742,0.0005c-0.7912,0 -1.5824,0.0002 -2.3736,-0.0005c-3.472,-0.0041 -6.9435,-0.0328 -10.4151,-0.054c-7.1992,-0.0443 -14.398,-0.1226 -21.596,-0.2429c-14.7786,-0.2473 -29.5546,-0.6647 -44.3263,-1.2338c-0.2541,-0.0097 -0.508,-0.021 -0.762,-0.0309c-1.4016,-0.0541 -2.803,-0.1143 -4.2045,-0.1702c-1.9807,-0.0789 -3.9615,-0.1537 -5.9419,-0.2405c-3.9068,-0.1712 -7.8128,-0.364 -11.7188,-0.5566c-4.5487,-0.2242 -9.0967,-0.4662 -13.6443,-0.7202c-6.7372,-0.3763 -13.4734,-0.777 -20.2076,-1.2205c-5.8022,-0.3822 -11.6035,-0.7841 -17.4031,-1.2179l-13.8606,-1.0372l-10.8788,-0.814l-8.657,-0.6476l-1.2762,-0.0955l-1.3143,-0.0983l-6.8688,-0.514l-2.0621,-0.1542l-15.4294,-1.1543l-3.5633,-0.2667l-60.6132,-4.5348l-1.0413,3.7269c-4.1461,14.8389 -6.7594,29.9851 -7.9088,45.2117c-2.1265,28.1691 0.8378,56.6185 8.9501,83.9438l0.0004,0c11.4068,1.1245 22.8188,2.1785 34.2353,3.1635c12.0799,1.0427 24.1649,2.0036 36.2542,2.8905c9.2426,0.6783 18.4878,1.3048 27.735,1.8922c28.5473,1.8135 57.1149,3.1935 85.6936,4.1414c6.3633,0.2109 12.7269,0.4029 19.0912,0.5713c49.9821,1.3203 99.9899,1.3134 149.9723,-0.0128c31.4122,-0.8337 62.8145,-2.1801 94.1931,-4.0592c7.895,-0.4725 15.7881,-0.9863 23.6797,-1.5251c26.9717,-1.8418 53.9236,-4.0593 80.8472,-6.674l3.9892,-0.3877l0.6381,-1.781c8.0107,-22.8223 10.025,-52.219 7.4982,-82.0809z" fill="#DCDF57"/>
                </g>
            </g>
            </g>
            </g>
            </g>
            <path stroke="null" id="svg_19" d="m9157.66552,4266.60403c13.0481,-9.5374 23.0715,-18.0835 31.5457,-26.8971c10.4318,-10.8501 20.4564,-21.6088 28.4296,-33.9332c1.537,-2.3746 3.2148,-4.7367 4.8375,-7.0206c0.9608,-1.3539 1.9234,-2.7083 2.8641,-4.0745c0.3727,-0.54 0.6432,-1.0964 0.9064,-1.635c0.1058,-0.2162 0.2109,-0.4308 0.3204,-0.6388l1.105,-2.0904l-2.4404,0.1733c-0.8915,0.0634 -1.7661,0.1413 -2.6289,0.2195c-1.8768,0.1688 -3.6497,0.328 -5.4073,0.3138c-3.7234,-0.0309 -6.7985,1.5119 -9.7729,3.005l-0.2407,0.1208c-6.7747,3.3988 -12.8383,7.5613 -19.4974,12.2557c-6.3286,4.4614 -11.8451,9.8437 -17.1793,15.0476c-2.4479,2.3882 -4.978,4.8575 -7.5439,7.1935c-7.5856,6.9066 -14.3831,14.6619 -20.9558,22.1614c-3.6818,4.2012 -7.4895,8.545 -11.381,12.6754c-3.2181,3.4172 -6.6006,6.8019 -9.8851,10.0813c0.7513,-1.1769 1.5045,-2.3517 2.2592,-3.5268c3.4582,-5.3879 7.0352,-10.9603 10.2261,-16.6304l0.8806,-1.5631c6.1277,-10.8816 12.4638,-22.1335 17.3527,-33.8834c2.6453,-6.3577 5.6115,-12.728 8.1842,-18.1999c0.5274,-1.1232 1.2835,-2.2052 2.1583,-3.4574c0.4558,-0.6525 0.9418,-1.3487 1.4442,-2.1183l1.4161,-2.1668c2.1706,-2.0896 3.5513,-4.5735 4.6255,-6.7739c4.5042,-9.2248 7.4585,-17.589 9.0313,-25.5723c2.395,-12.1596 5.095,-26.3034 6.8262,-40.2904c0.7394,-5.9846 0.3801,-12.1171 0.032,-18.0487c-0.0858,-1.4681 -0.1726,-2.9347 -0.2419,-4.3963c-0.35,-7.3251 -0.9261,-13.9075 -1.7617,-20.1231c-0.6648,-4.946 -1.7997,-9.8723 -2.8976,-14.6382l-0.3645,-1.5857c-0.8568,-3.7387 -1.8533,-7.498 -2.8183,-11.1332l-1.0043,-3.8026c-0.0537,-0.2076 -0.094,-0.424 -0.1345,-0.6398c-0.1968,-1.0295 -0.5609,-2.9436 -2.7098,-3.2759l-0.9861,-0.1536l-0.3976,0.8702c-0.236,0.5131 -0.4364,1.0237 -0.6313,1.5202c-0.3689,0.9403 -0.6872,1.753 -1.1706,2.3755c-4.6794,6.0296 -8.069,11.3815 -10.6693,16.8402c-3.6408,7.6426 -7.6528,16.6043 -9.1897,26.2512c-0.8181,5.1263 -1.7442,10.937 -1.6473,16.6476c0.3458,20.3583 1.0454,40.3028 1.6846,57.1277c0.4316,11.3441 3.1127,21.9747 5.6782,30.8781c0.5244,1.8195 0.4167,3.2085 -0.3827,4.9579c-2.3434,5.118 -4.6295,10.2604 -6.9156,15.4027c-2.3475,5.2798 -4.6954,10.5615 -7.1056,15.8164c-1.2213,2.6643 -2.705,5.3008 -4.1398,7.8514c-0.0492,0.0877 -0.0988,0.1752 -0.1479,0.2628c2.8559,-19.1763 2.6636,-38.7124 -0.5721,-58.1032c-3.4924,-20.9228 -10.8761,-38.3692 -22.5725,-53.3386c-1.5325,-1.9602 -3.2822,-3.763 -4.9753,-5.5056l-1.1575,-1.1964c-0.7007,-0.7289 -1.4487,-1.3628 -2.3148,-2.0974c-0.4103,-0.3469 -0.8471,-0.7181 -1.3179,-1.1314l-1.5638,-1.3761l-0.5892,1.9079c-0.126,0.4058 -0.2464,0.7555 -0.3545,1.0685c-0.2195,0.6376 -0.4095,1.1877 -0.4971,1.7869c-2.7209,18.6239 -1.2511,37.345 0.7435,54.8009c0.8658,7.5685 1.6648,13.389 2.5924,18.8732c1.6983,10.0428 5.0667,20.6051 10.6007,33.2365c0.3372,0.7693 0.7025,1.5266 1.0681,2.2831c0.5259,1.086 1.0219,2.1128 1.4367,3.1786c2.8171,7.242 5.8553,12.6859 9.559,17.1327c1.4573,1.7475 1.5071,3.2596 0.179,5.3913c-1.6011,2.5702 -3.2256,5.1286 -4.8491,7.687c-3.6666,5.7737 -7.4314,11.7321 -10.8908,17.7761c8.3717,-0.456 16.7412,-0.9636 25.1082,-1.5239c6.584,-3.065 13.3773,-7.1993 20.8079,-12.6299z" fill="#738B2D"/>
            <path stroke="null" id="svg_20" d="m9103.26232,4248.39483c1.5522,-13.714 -0.3705,-26.6831 -5.7144,-38.5486c-0.2852,-0.6323 -0.6343,-1.1905 -1.003,-1.7816c-0.1639,-0.2608 -0.3323,-0.5318 -0.5027,-0.8199l-0.6862,-1.167l-1.1616,0.65c-3.1078,1.7366 -4.5587,4.3634 -5.8888,7.1288c-1.7505,3.6362 -2.8347,6.6438 -3.412,9.4646c-0.7264,3.545 -1.4706,7.0882 -2.2148,10.631c-2.5615,12.1962 -5.2105,24.8071 -7.0419,37.3193c-0.5424,3.7075 -0.9723,7.4381 -1.3087,11.1814c7.6784,-0.2776 15.3555,-0.6021 23.0312,-0.9658c2.6149,-10.3547 4.5721,-21.3241 5.9029,-33.0922z" fill="#738B2D"/>
            <path stroke="null" id="svg_21" d="m8921.58812,4282.28353c-0.3545,-4.5263 -0.8446,-9.0363 -1.4996,-13.5124c-1.8313,-12.5121 -4.4804,-25.1231 -7.0419,-37.3192c-0.7443,-3.5429 -1.4885,-7.0859 -2.2149,-10.631c-0.5773,-2.8208 -1.6614,-5.8279 -3.4119,-9.4648c-1.3301,-2.7652 -2.781,-5.392 -5.8889,-7.1286l-1.1617,-0.6501l-0.6861,1.167c-0.1703,0.288 -0.3388,0.559 -0.5027,0.8199c-0.3686,0.591 -0.7178,1.1493 -1.0029,1.7814c-5.344,11.8656 -7.2667,24.8346 -5.7144,38.5487c1.4297,12.643 3.5822,24.3643 6.4977,35.3908c3.906,0.1926 7.812,0.3854 11.7188,0.5566c3.6358,0.1595 7.2721,0.3016 10.9085,0.4417z" fill="#738B2D"/>
            <path stroke="null" id="svg_22" d="m8884.93152,4279.91143c-3.7075,-6.6133 -7.8443,-13.129 -11.8459,-19.43c-1.6234,-2.5582 -3.2479,-5.117 -4.849,-7.687c-1.3282,-2.1317 -1.2783,-3.6437 0.1789,-5.3912c3.7038,-4.447 6.7419,-9.8907 9.559,-17.1327c0.4148,-1.066 0.9109,-2.0923 1.4367,-3.1786c0.3656,-0.7565 0.7308,-1.5139 1.0681,-2.2831c5.534,-12.6313 8.9023,-23.1937 10.6006,-33.2365c0.9276,-5.4842 1.7267,-11.3044 2.5924,-18.873c1.9947,-17.4561 3.4645,-36.1773 0.7435,-54.8012c-0.0875,-0.5992 -0.2776,-1.1493 -0.4972,-1.7869c-0.1081,-0.3132 -0.2284,-0.6627 -0.3544,-1.0687l-0.5893,-1.9077l-1.5638,1.3761c-0.4707,0.4131 -0.9075,0.7844 -1.3178,1.1314c-0.8661,0.7346 -1.6142,1.3684 -2.3148,2.0974l-1.1576,1.1967c-1.6931,1.7424 -3.4429,3.545 -4.9753,5.5058c-11.6964,14.969 -19.08,32.4155 -22.5725,53.3381c-3.2357,19.3909 -3.4279,38.9271 -0.572,58.1034c-0.0492,-0.0876 -0.0988,-0.1752 -0.1479,-0.2628c-1.4348,-2.5506 -2.9185,-5.1871 -4.1398,-7.8515c-2.4102,-5.2548 -4.7581,-10.5361 -7.1057,-15.8164c-2.2861,-5.1422 -4.5721,-10.2841 -6.9156,-15.4023c-0.7994,-1.7494 -0.9071,-3.1388 -0.3827,-4.9583c2.5656,-8.9035 5.2467,-19.534 5.6783,-30.8781c0.6392,-16.8249 1.3387,-36.7693 1.6845,-57.1277c0.0969,-5.7107 -0.8292,-11.5212 -1.6473,-16.6475c-1.537,-9.647 -5.5489,-18.6086 -9.1897,-26.2513c-2.6002,-5.4586 -5.9897,-10.8101 -10.6692,-16.84c-0.4834,-0.6225 -0.8016,-1.435 -1.1706,-2.3757c-0.1949,-0.4963 -0.3954,-1.007 -0.6313,-1.5202l-0.3977,-0.8701l-0.9861,0.1535c-2.1489,0.3324 -2.513,2.2465 -2.7098,3.2759c-0.0406,0.2158 -0.0809,0.4323 -0.1346,0.6399l-1.0044,3.8028c-0.9649,3.6348 -1.9614,7.3942 -2.8182,11.1329l-0.3645,1.5858c-1.0979,4.7659 -2.2328,9.692 -2.8976,14.638c-0.8356,6.2156 -1.4117,12.7984 -1.7617,20.1233c-0.0693,1.4616 -0.1561,2.9282 -0.2418,4.3961c-0.3481,5.9317 -0.7074,12.0643 0.0321,18.0489c1.7311,13.987 4.4312,28.1306 6.8261,40.2904c1.5728,7.9833 4.527,16.3474 9.0313,25.5722c1.074,2.2003 2.4549,4.6844 4.6254,6.7744l1.4162,2.1664c0.5023,0.77 0.9884,1.4658 1.4441,2.1187c0.8747,1.2518 1.6309,2.3338 2.1583,3.4575c2.5726,5.4714 5.5388,11.8417 8.1841,18.1992c4.8889,11.7501 11.2249,23.0019 17.3527,33.8836l0.8807,1.5634c3.1909,5.6698 6.768,11.242 10.2261,16.6304c0.7547,1.1747 1.5078,2.3493 2.2592,3.5268c-3.2845,-3.2798 -6.667,-6.6644 -9.8851,-10.0816c-3.8916,-4.1305 -7.6993,-8.4742 -11.3811,-12.675c-6.5727,-7.4999 -13.3701,-15.2552 -20.9558,-22.1618c-2.566,-2.336 -5.0961,-4.8055 -7.5439,-7.1935c-5.3343,-5.2039 -10.8508,-10.5862 -17.1794,-15.0477c-6.6591,-4.6942 -12.7228,-8.8568 -19.4975,-12.2557l-0.2408,-0.1207c-2.9744,-1.4931 -6.0495,-3.0359 -9.7729,-3.0051c-1.7576,0.0143 -3.5305,-0.1449 -5.4073,-0.3137c-0.8627,-0.0782 -1.7375,-0.1563 -2.6289,-0.2195l-2.4404,-0.1733l1.105,2.0904c0.1096,0.208 0.2147,0.4226 0.3205,0.6388c0.2631,0.5385 0.5337,1.0949 0.9063,1.6349c0.9407,1.3666 1.9033,2.7207 2.8641,4.0747c1.6227,2.2839 3.3005,4.6459 4.8374,7.021c7.9733,12.3241 17.9978,23.0828 28.4297,33.9331c8.4741,8.8133 18.4975,17.3594 31.5457,26.8969c9.7964,7.1597 18.4884,12.0799 27.049,15.241c6.7342,0.4435 13.4704,0.8442 20.2076,1.2205c-0.1246,-0.2198 -0.2614,-0.434 -0.3847,-0.6542z" fill="#738B2D"/>
            <path stroke="null" id="svg_23" d="m8921.67202,4281.54253c3.5383,-3.0628 6.9272,-6.2992 10.3592,-9.4835c2.5372,-2.3539 5.0063,-4.7827 7.5898,-7.084c0.4614,-0.4111 1.4251,-0.6586 2.0013,-0.4797c6.308,1.961 12.2774,0.9593 17.9792,-2.0315c1.2884,-0.6757 2.3647,-1.8183 3.4112,-2.8727c0.9656,-0.9727 0.5951,-2.7796 -0.8013,-3.7251c-2.6662,-1.8048 -5.5925,-2.6109 -8.7782,-1.6413c-1.4639,0.4454 -2.8678,1.0886 -4.2993,1.642c-0.1532,-0.1858 -0.3067,-0.3719 -0.4603,-0.5575c1.3488,-1.8161 2.6711,-3.6523 4.0529,-5.4427c1.8508,-2.3982 3.7318,-4.7741 5.6324,-7.1331c0.7994,-0.9921 1.6868,-1.3894 3.1466,-1.1211c3.3769,0.6205 6.7605,0.3466 10.1974,-0.1721c3.9553,-0.5967 7.7247,-1.5173 11.1903,-3.4862c1.3774,-0.7825 2.7836,-1.6621 3.8573,-2.7992c1.9745,-2.0908 2.1176,-3.9049 0.6276,-6.3635c-0.4174,-0.6896 -1.4012,-1.3913 -2.1671,-1.4413c-1.6771,-0.1092 -3.4828,-0.1174 -5.054,0.3936c-3.7276,1.212 -7.3498,2.7489 -11.0136,4.157c-0.486,0.1866 -0.9664,0.3872 -1.449,0.5813c-0.1182,-0.1207 -0.2359,-0.2419 -0.3537,-0.3626c1.0305,-1.5198 2.0274,-3.0638 3.0988,-4.5542c2.3494,-3.2663 4.8308,-6.4423 7.0695,-9.7815c1.1617,-1.7321 2.6919,-2.4206 4.5867,-2.4422c4.3757,-0.0503 7.9117,-2.2149 11.532,-4.2874c5.7375,-3.2849 9.7868,-8.1886 13.3579,-13.5758c1.4088,-2.1259 1.6748,-5.0914 -0.6671,-5.8136c-1.165,-0.3596 -2.6599,-0.6586 -3.6926,-0.23c-2.1914,0.9093 -4.2587,2.1951 -6.225,3.5476c-1.9525,1.3428 -3.7205,2.9543 -5.5646,4.4544c-0.2195,0.1781 -0.4073,0.3953 -0.61,0.5947c-0.0928,-0.1647 -0.1859,-0.3298 -0.2788,-0.4949c1.2251,-2.557 2.3729,-5.1542 3.6904,-7.6625c2.9349,-5.5903 6.3401,-10.9696 8.8341,-16.7456c2.6271,-6.0844 6.5164,-11.463 8.9776,-17.6254c2.8004,-7.011 5.6753,-13.9247 5.5858,-21.6784c-0.0216,-1.866 -0.5494,-3.4694 -1.4166,-4.9963c-0.9992,-1.7598 -4.0619,-1.8555 -5.0927,-0.0302c-1.739,3.0798 -3.5368,6.1986 -4.7026,9.5144c-2.3144,6.5805 -3.1485,13.5024 -3.9755,20.4116c-0.4178,3.4927 -1.3595,6.9237 -1.761,10.4172c-0.278,2.4248 -0.4755,4.7939 -1.8564,6.8896c-0.1215,0.1844 -0.202,0.3961 -0.3264,0.5781c-0.0511,0.0741 -0.1692,0.1028 -0.5005,0.2895c-0.0828,-0.6325 -0.2191,-1.1785 -0.215,-1.7237c0.0216,-2.9221 0.3272,-5.8702 0.0242,-8.7555c-0.1677,-1.5988 -1.1177,-3.2513 -2.1053,-4.5919c-1.1241,-1.5261 -5.0995,-0.6452 -6.2239,1.4043c-2.9535,5.3823 -3.3784,10.8984 -0.4606,16.4875c1.048,2.0066 2.1079,4.0158 2.9815,6.1003c0.2761,0.6596 0.2139,1.6942 -0.1178,2.3388c-2.4333,4.7321 -4.7808,9.5267 -7.5499,14.0607c-1.8359,3.0061 -4.3235,5.6146 -6.5194,8.4008c-0.18,-0.0616 -0.3604,-0.1226 -0.5404,-0.1842c-0.0421,-0.4817 -0.1476,-0.9678 -0.1174,-1.4452c0.2695,-4.2263 0.7532,-8.4514 0.7521,-12.6765c-0.0004,-1.5966 -0.8781,-3.3322 -1.7579,-4.7556c-1.2303,-1.9902 -3.5338,-2.1594 -5.5203,-0.664c-2.1008,1.5811 -3.2215,3.7424 -4.0459,6.2429c-1.9391,5.8802 -1.332,11.694 0.6843,17.2598c2.0471,5.6505 1.0618,10.3211 -2.7993,14.6835c-1.3487,1.5238 -2.4347,3.2781 -3.7619,4.8232c-1.3118,1.5269 -2.7769,2.9221 -4.6228,4.3318c0.0682,-0.8513 0.0208,-1.7311 0.2233,-2.5492c1.0472,-4.23 1.3968,-8.502 0.9156,-12.8338c-0.0913,-0.821 -0.2206,-1.6522 -0.4599,-2.4399c-0.7111,-2.3431 -2.3736,-3.3755 -4.7778,-3.6595c-2.1552,-0.2549 -3.4373,0.7181 -4.5348,2.3543c-2.6804,3.994 -4.1223,8.3272 -4.514,13.1695c-0.385,4.7648 0.7666,9.2773 1.4192,13.8827c0.2237,1.5768 0.5795,3.142 0.6835,4.7252c0.0466,0.7054 -0.2318,1.535 -0.6161,2.1504c-3.5994,5.7639 -8.5535,10.3338 -13.3727,15.0188c-0.2359,0.2294 -0.5094,0.4275 -0.7908,0.5986c-0.1278,0.0774 -0.3175,0.0529 -0.884,0.1294c0.6492,-2.2712 1.2469,-4.308 1.8131,-6.3537c1.6398,-5.926 2.1381,-11.9199 0.8057,-17.9661c-0.3749,-1.7001 -0.742,-3.5598 -2.5149,-4.4866c-2.2704,-1.1871 -4.4983,-0.6955 -6.2018,1.4805c-3.1742,4.0553 -5.3149,8.6285 -5.2173,13.8387c0.101,5.4021 0.6313,10.7993 1.0894,16.1891c0.1002,1.1791 0.5892,2.361 1.0771,3.4623c0.5385,1.2149 0.5706,2.1847 -0.5371,3.093c-0.8268,0.6776 -1.6479,1.3623 -2.4722,2.043c1.4015,0.0559 2.8029,0.1161 4.2045,0.1702c0.2812,-0.2373 0.5677,-0.4689 0.846,-0.7098z" fill="#9FB86F"/>
            <path stroke="null" id="svg_24" d="m8814.30942,4275.62803c-2.2294,-4.4544 -4.4673,-8.9073 -6.5586,-13.4269c-2.778,-6.0025 -5.4092,-12.0728 -8.1275,-18.1029c-0.5889,-1.3058 -0.1286,-2.1601 0.8933,-3.0091c0.9269,-0.77 1.8903,-1.6108 2.504,-2.6227c2.806,-4.6242 5.6805,-9.2237 8.1723,-14.0175c2.4031,-4.6238 2.5186,-9.6718 1.4777,-14.7155c-0.5587,-2.7069 -2.336,-4.1375 -4.8975,-4.0833c-2.0002,0.0422 -3.1555,1.5448 -4.2468,2.9014c-3.8815,4.8238 -6.0993,10.4139 -7.2644,16.4515c-0.4021,2.0841 -0.7722,4.1745 -1.2,6.497c-0.4737,-0.3197 -0.6545,-0.3824 -0.7346,-0.5086c-0.1759,-0.2781 -0.3331,-0.5774 -0.4424,-0.8875c-2.2342,-6.339 -4.6407,-12.6348 -5.3029,-19.3979c-0.0708,-0.7218 0.0488,-1.5888 0.404,-2.2c0.7968,-1.3723 1.8116,-2.6159 2.7128,-3.9289c2.6319,-3.8356 5.6693,-7.3657 7.4422,-11.8052c1.8015,-4.5114 2.4363,-9.034 1.8105,-13.8032c-0.256,-1.9536 -0.9716,-3.3952 -3.0158,-4.1248c-2.2801,-0.8144 -4.2277,-0.6283 -5.9063,1.1542c-0.5646,0.5994 -1.0499,1.2867 -1.4967,1.9812c-2.3565,3.6665 -3.9423,7.6487 -4.8844,11.9037c-0.1823,0.8226 -0.6157,1.5898 -0.9332,2.3826c-1.0271,-2.0833 -1.7191,-3.9844 -2.2152,-5.9351c-0.502,-1.974 -0.6951,-4.0283 -1.2262,-5.9928c-1.5194,-5.6242 -0.3261,-10.246 4.0194,-14.3976c4.2803,-4.0897 7.4079,-9.0273 8.2852,-15.1568c0.3731,-2.6063 0.3298,-5.0403 -0.8493,-7.3904c-1.1148,-2.2229 -3.2536,-3.0952 -5.24,-1.8594c-1.4211,0.8844 -2.9785,2.0486 -3.6885,3.479c-1.8791,3.7843 -3.324,7.7836 -4.9612,11.6893c-0.1853,0.4409 -0.4957,0.8296 -0.748,1.2422c-0.1882,-0.0251 -0.3768,-0.0499 -0.5654,-0.075c-0.7285,-3.472 -1.7978,-6.914 -2.106,-10.4232c-0.4651,-5.2921 -0.4364,-10.6306 -0.5128,-15.9509c-0.0104,-0.7253 0.3936,-1.6797 0.9343,-2.1479c1.7088,-1.4787 3.5517,-2.8071 5.382,-4.139c5.0984,-3.7093 7.1693,-8.8394 6.9167,-14.9738c-0.0966,-2.3357 -3.2659,-4.8918 -4.9512,-4.0246c-1.4807,0.762 -3.0661,1.8197 -3.927,3.1775c-1.5541,2.45 -2.5905,5.2265 -3.8699,7.8535c-0.2389,0.4904 -0.6038,0.9191 -0.9589,1.4483c-0.2139,-0.3141 -0.3071,-0.3924 -0.3198,-0.4815c-0.031,-0.2183 -0.0086,-0.4438 -0.0354,-0.663c-0.3052,-2.4907 0.5706,-4.7007 1.3994,-6.9964c1.1933,-3.308 1.875,-6.8001 3.0531,-10.1144c2.3304,-6.5569 4.6604,-13.1282 5.5124,-20.0512c0.4293,-3.4889 0.205,-7.0814 0.0164,-10.613c-0.1118,-2.0933 -2.898,-3.3691 -4.5755,-2.2369c-1.4553,0.9822 -2.6409,2.184 -3.4898,3.8458c-3.5267,6.9058 -4.0242,14.3767 -4.6325,21.902c-0.5344,6.614 0.5587,13.1607 0.2076,19.7788c-0.3335,6.2828 0.3253,12.6151 0.47,18.9272c0.0648,2.8326 -0.0611,5.6693 -0.1006,8.5044c-0.1565,0.1066 -0.313,0.2128 -0.4697,0.3194c-0.0931,-0.2688 -0.1647,-0.5468 -0.2821,-0.8043c-0.985,-2.1631 -1.8523,-4.3924 -3.0046,-6.4635c-1.1602,-2.0856 -2.4404,-4.1562 -3.9993,-5.9452c-0.7346,-0.8427 -2.2067,-1.2394 -3.41,-1.4352c-2.4187,-0.394 -3.4988,2.3808 -3.1813,4.911c0.8039,6.4135 2.2514,12.606 5.9309,18.0986c2.3215,3.4661 4.5266,6.9767 8.4242,8.9669c1.6875,0.8612 2.7526,2.1582 3.0228,4.2262c0.521,3.9864 1.3324,7.9342 1.9846,11.9043c0.2978,1.8118 0.5042,3.6378 0.7516,5.4573c-0.1591,0.0559 -0.3186,0.1119 -0.4778,0.1677c-0.3462,-0.3885 -0.6876,-0.7817 -1.0398,-1.1649c-2.6561,-2.8899 -5.2176,-5.8768 -8.0179,-8.6195c-1.1803,-1.1557 -2.8011,-1.9513 -4.3522,-2.5986c-0.7085,-0.2959 -1.9015,-0.1044 -2.582,0.3275c-2.4277,1.5399 -3.1056,3.2286 -2.2663,5.9793c0.4561,1.4956 1.3249,2.9089 2.2111,4.2219c2.229,3.3046 5.196,5.8043 8.4742,8.0974c2.8481,1.992 5.7572,3.7417 9.0581,4.687c1.427,0.4084 2.0453,1.1585 2.3204,2.4027c0.6541,2.958 1.2828,5.9222 1.8746,8.8933c0.4417,2.2182 0.8102,4.451 1.2113,6.6771c-0.2203,0.0984 -0.4401,0.1965 -0.6604,0.2948c-1.0361,-1.1322 -2.0076,-2.3322 -3.1212,-3.3821c-2.4228,-2.2845 -5.4025,-2.8629 -8.5927,-2.4313c-1.6715,0.2261 -2.8063,1.6801 -2.3736,2.9804c0.4684,1.4095 0.9249,2.9118 1.7784,4.0894c3.7783,5.2136 8.6803,8.7646 15.2027,9.8121c0.5955,0.0955 1.3487,0.7458 1.5794,1.319c1.291,3.2099 2.4232,6.4832 3.6497,9.7192c1.6592,4.378 3.2558,8.7836 5.0641,13.1001c1.5981,3.8151 3.4619,7.5185 5.1718,11.2878c0.2329,0.5132 0.2519,1.1233 0.3701,1.6884c-0.1718,0.064 -0.3436,0.1275 -0.5158,0.1912c-0.5437,-0.7138 -1.0156,-1.4993 -1.6443,-2.1284c-2.3528,-2.3558 -4.8035,-4.615 -7.1295,-6.9964c-2.7993,-2.8661 -6.1329,-4.87 -9.7916,-6.3924c-2.6264,-1.0927 -5.3518,-1.9548 -8.1533,-0.9373c-3.6314,1.319 -5.7829,4.4224 -2.2331,7.9017c3.7262,3.652 7.857,6.1485 13.0492,7.3457c6.339,1.4616 12.5114,3.6486 18.7457,5.5548c0.3261,0.0996 0.65,0.4584 0.8195,0.7789c1.4158,2.6749 2.844,5.3447 4.1715,8.0638c0.7698,1.5768 1.4948,3.1756 2.2131,4.7777l1.3143,0.0983l1.2762,0.0955z" fill="#9FB86F"/>
            <path stroke="null" id="svg_25" d="m9076.45252,4282.36983c-0.9098,-0.8597 -0.8633,-1.7828 -0.358,-2.9229c0.4878,-1.1017 0.9768,-2.2831 1.0771,-3.4622c0.458,-5.3898 0.9884,-10.7871 1.0894,-16.1892c0.0977,-5.2101 -2.0431,-9.7833 -5.2173,-13.8385c-1.7036,-2.1761 -3.9314,-2.6681 -6.2018,-1.4807c-1.7728,0.9269 -2.14,2.7865 -2.5149,4.4867c-1.3323,6.0461 -0.8341,12.0401 0.8057,17.9662c0.5661,2.0456 1.1639,4.0824 1.8132,6.3532c-0.5665,-0.076 -0.7562,-0.0515 -0.8841,-0.1289c-0.2814,-0.1712 -0.5549,-0.3694 -0.7908,-0.5987c-4.8192,-4.6853 -9.7733,-9.2549 -13.3727,-15.0188c-0.3842,-0.6154 -0.6626,-1.445 -0.6161,-2.1504c0.104,-1.5832 0.4599,-3.1484 0.6835,-4.7252c0.6526,-4.6057 1.8042,-9.1179 1.4192,-13.8825c-0.3917,-4.8424 -1.8336,-9.1755 -4.5139,-13.1697c-1.0976,-1.6362 -2.3796,-2.6091 -4.5349,-2.3543c-2.4042,0.284 -4.0667,1.3163 -4.7778,3.659c-0.2393,0.7879 -0.3686,1.6194 -0.4599,2.4404c-0.4811,4.3318 -0.1316,8.6039 0.9157,12.8338c0.2023,0.8181 0.155,1.698 0.2232,2.5492c-1.8459,-1.4096 -3.3109,-2.8052 -4.6228,-4.3318c-1.3271,-1.5452 -2.4131,-3.2997 -3.7619,-4.8232c-3.8611,-4.3622 -4.8464,-9.0328 -2.7992,-14.6835c2.0162,-5.5657 2.6233,-11.3797 0.6842,-17.2598c-0.8243,-2.5003 -1.945,-4.6616 -4.0459,-6.2429c-1.9864,-1.4953 -4.29,-1.326 -5.5202,0.6637c-0.88,1.4237 -1.7576,3.1592 -1.758,4.7558c-0.0011,4.2252 0.4826,8.45 0.7521,12.6765c0.0302,0.4771 -0.0753,0.963 -0.1174,1.4452c-0.18,0.0616 -0.3604,0.1226 -0.5404,0.1842c-2.1959,-2.7861 -4.6835,-5.3947 -6.5194,-8.4007c-2.769,-4.5341 -5.1166,-9.3287 -7.5498,-14.0607c-0.3317,-0.6447 -0.3939,-1.6793 -0.1177,-2.3394c0.8736,-2.084 1.9335,-4.0932 2.9815,-6.0996c2.9177,-5.5893 2.4929,-11.1054 -0.4606,-16.4877c-1.1244,-2.0493 -5.0999,-2.9304 -6.2239,-1.4043c-0.9876,1.3405 -1.9376,2.9931 -2.1053,4.5915c-0.303,2.8857 0.0026,5.8337 0.0242,8.7558c0.0041,0.5452 -0.1323,1.0912 -0.2151,1.7234c-0.3313,-0.1869 -0.4494,-0.2151 -0.5005,-0.2892c-0.1245,-0.182 -0.205,-0.3937 -0.3265,-0.5781c-1.3808,-2.0955 -1.5783,-4.4648 -1.8564,-6.8894c-0.4014,-3.4936 -1.3431,-6.9245 -1.761,-10.4174c-0.827,-6.9097 -1.661,-13.8311 -3.9754,-20.4116c-1.1657,-3.3159 -2.9636,-6.4344 -4.7025,-9.5144c-1.0309,-1.8253 -4.0936,-1.7296 -5.0928,0.0302c-0.8672,1.5269 -1.3949,3.1303 -1.4165,4.9963c-0.0894,7.7538 2.7855,14.6674 5.5858,21.6784c2.4612,6.1625 6.3506,11.5409 8.9777,17.6255c2.494,5.7758 5.8993,11.1553 8.8342,16.7452c1.3174,2.5085 2.4653,5.1058 3.6903,7.6627c-0.0928,0.1651 -0.1859,0.3302 -0.2787,0.4951c-0.2027,-0.1994 -0.3906,-0.4167 -0.6101,-0.5953c-1.8441,-1.4996 -3.6121,-3.1112 -5.5645,-4.454c-1.9663,-1.3524 -4.0337,-2.6383 -6.225,-3.5475c-1.0327,-0.4287 -2.5276,-0.1298 -3.6926,0.2299c-2.342,0.7224 -2.0759,3.6878 -0.6671,5.8131c3.5711,5.3877 7.6203,10.2916 13.3578,13.5763c3.6203,2.0725 7.1564,4.2371 11.532,4.2874c1.8947,0.0216 3.425,0.7101 4.5866,2.4422c2.2388,3.3394 4.7201,6.515 7.0695,9.7816c1.0715,1.4903 2.0684,3.0343 3.0989,4.5542c-0.1178,0.1206 -0.2356,0.2418 -0.3537,0.3625c-0.4826,-0.194 -0.963,-0.3946 -1.449,-0.5813c-3.6638,-1.4081 -7.286,-2.9449 -11.0136,-4.157c-1.5713,-0.5109 -3.377,-0.5027 -5.054,-0.3936c-0.7659,0.05 -1.7497,0.7517 -2.1672,1.4413c-1.49,2.4586 -1.3468,4.2728 0.6277,6.3636c1.0737,1.1371 2.4798,2.0167 3.8573,2.7992c3.4656,1.9689 7.235,2.8895 11.1903,3.4862c3.4369,0.5187 6.8205,0.7928 10.1974,0.1721c1.4599,-0.2682 2.3472,0.129 3.1466,1.1212c1.9007,2.359 3.7816,4.7346 5.6324,7.1331c1.3819,1.7905 2.7042,3.6266 4.053,5.4427c-0.1535,0.1856 -0.3071,0.3717 -0.4602,0.5573c-1.4315,-0.5534 -2.8354,-1.1964 -4.2993,-1.642c-3.1857,-0.9694 -6.1121,-0.1633 -8.7783,1.6417c-1.3964,0.9454 -1.7669,2.7523 -0.8012,3.725c1.0465,1.0543 2.1228,2.197 3.4112,2.8726c5.7017,2.9909 11.671,3.9926 17.9791,2.0315c0.5762,-0.1789 1.54,0.0686 2.0014,0.4797c2.5834,2.3013 5.0525,4.7301 7.5897,7.084c2.8703,2.6631 5.7155,5.3564 8.6381,7.9604c0.6653,-0.0236 1.3307,-0.0428 1.996,-0.0668c0.7078,-0.026 1.4158,-0.0571 2.1239,-0.0836z" fill="#9FB86F"/>
            <path stroke="null" id="svg_26" d="m9186.21962,4273.15693c1.3275,-2.7191 2.7557,-5.3889 4.1715,-8.0638c0.1696,-0.3205 0.4934,-0.6794 0.8195,-0.7789c6.2343,-1.9062 12.4067,-4.0932 18.7457,-5.5548c5.1923,-1.197 9.3232,-3.6936 13.0493,-7.3461c3.5499,-3.4794 1.3983,-6.5823 -2.2332,-7.9013c-2.8015,-1.0177 -5.5269,-0.1554 -8.1532,0.9374c-3.6587,1.5224 -6.9924,3.5264 -9.7916,6.3923c-2.326,2.3814 -4.7767,4.6407 -7.1296,6.9964c-0.6287,0.6291 -1.1005,1.4148 -1.6443,2.1284c-0.1721,-0.0638 -0.3439,-0.1275 -0.5157,-0.1912c0.1181,-0.5649 0.1371,-1.1752 0.3701,-1.6883c1.7098,-3.7693 3.5737,-7.4727 5.1718,-11.2879c1.8083,-4.3164 3.4049,-8.7219 5.0641,-13.0999c1.2265,-3.2364 2.3587,-6.5095 3.6497,-9.7193c0.2307,-0.5731 0.9839,-1.2235 1.5795,-1.319c6.5223,-1.0476 11.4243,-4.5985 15.2026,-9.812c0.8535,-1.1777 1.31,-2.68 1.7785,-4.0895c0.4326,-1.3004 -0.7021,-2.7545 -2.3737,-2.9804c-3.1901,-0.4315 -6.1697,0.1468 -8.5926,2.4315c-1.1136,1.0499 -2.0852,2.2499 -3.1213,3.382c-0.2203,-0.0983 -0.4402,-0.1963 -0.6604,-0.2946c0.401,-2.2262 0.7696,-4.4589 1.2112,-6.6771c0.5918,-2.971 1.2205,-5.9354 1.8746,-8.8934c0.275,-1.244 0.8934,-1.9943 2.3204,-2.4026c3.3008,-0.9452 6.2101,-2.6949 9.0582,-4.687c3.2781,-2.2931 6.2451,-4.7932 8.4741,-8.0974c0.8862,-1.3132 1.7549,-2.7262 2.2112,-4.2218c0.8392,-2.7507 0.1613,-4.4393 -2.2663,-5.9797c-0.6806,-0.4315 -1.8735,-0.623 -2.582,-0.3271c-1.5511,0.6473 -3.172,1.4429 -4.3523,2.5986c-2.8004,2.7427 -5.3618,5.7298 -8.0179,8.6195c-0.3522,0.3832 -0.6935,0.7764 -1.0398,1.1651c-0.1592,-0.0559 -0.3187,-0.1117 -0.4778,-0.1678c0.2474,-1.8195 0.4539,-3.6459 0.7517,-5.4572c0.6522,-3.9702 1.4635,-7.918 1.9846,-11.9043c0.2701,-2.0681 1.3353,-3.365 3.0229,-4.2267c3.8975,-1.9898 6.1027,-5.5004 8.4241,-8.9665c3.6795,-5.4926 5.127,-11.685 5.931,-18.0986c0.3175,-2.5303 -0.7625,-5.3048 -3.1813,-4.9109c-1.2034,0.1957 -2.6755,0.5926 -3.4101,1.4351c-1.5589,1.789 -2.8391,3.8596 -3.9993,5.9452c-1.1524,2.0706 -2.0196,4.3 -3.0046,6.4635c-0.1174,0.2575 -0.189,0.5355 -0.2822,0.8043c-0.1565,-0.1066 -0.313,-0.2132 -0.4695,-0.3195c-0.0396,-2.8349 -0.1655,-5.6718 -0.1006,-8.5044c0.1446,-6.3121 0.8035,-12.6444 0.4699,-18.9272c-0.351,-6.6181 0.7421,-13.1651 0.2076,-19.7788c-0.6082,-7.5253 -1.1058,-14.9966 -4.6325,-21.902c-0.849,-1.6619 -2.0345,-2.8637 -3.4898,-3.8458c-1.6775,-1.1322 -4.4637,0.1432 -4.5755,2.2369c-0.1886,3.5316 -0.413,7.1243 0.0164,10.6131c0.8521,6.923 3.1821,13.4942 5.5125,20.0512c1.178,3.3143 1.8597,6.8065 3.053,10.1144c0.8289,2.2953 1.7047,4.5057 1.3995,6.9964c-0.0269,0.2191 -0.0045,0.4446 -0.0355,0.663c-0.0127,0.0891 -0.1058,0.1669 -0.3197,0.4815c-0.3552,-0.5291 -0.72,-0.9581 -0.9589,-1.4483c-1.2795,-2.627 -2.3159,-5.4035 -3.8701,-7.8535c-0.8608,-1.3577 -2.4463,-2.4155 -3.9269,-3.1775c-1.6853,-0.8672 -4.8546,1.6889 -4.9512,4.0246c-0.2526,6.1343 1.8184,11.2645 6.9167,14.9738c1.8303,1.3316 3.6732,2.6603 5.382,4.139c0.5408,0.4682 0.9448,1.4226 0.9344,2.1479c-0.0764,5.3205 -0.0477,10.6589 -0.5128,15.951c-0.3082,3.5089 -1.3774,6.9509 -2.1061,10.4231c-0.1886,0.0251 -0.3772,0.05 -0.5654,0.075c-0.2523,-0.4129 -0.5627,-0.8012 -0.748,-1.2425c-1.6372,-3.9055 -3.0821,-7.9047 -4.9612,-11.6894c-0.71,-1.43 -2.2675,-2.5942 -3.6885,-3.4786c-1.9865,-1.2358 -4.1253,-0.3633 -5.24,1.8594c-1.1792,2.3501 -1.2224,4.7841 -0.8494,7.3904c0.877,6.1295 4.0049,11.0673 8.2852,15.1568c4.3455,4.1517 5.5389,8.7734 4.0194,14.3976c-0.5311,1.9644 -0.7241,4.0187 -1.2261,5.9925c-0.496,1.951 -1.1881,3.8521 -2.2153,5.9353c-0.3175,-0.7932 -0.7509,-1.56 -0.9332,-2.383c-0.9422,-4.2545 -2.5279,-8.2368 -4.8845,-11.9031c-0.4468,-0.6947 -0.9321,-1.382 -1.4967,-1.9812c-1.6786,-1.7826 -3.6262,-1.9687 -5.9063,-1.1543c-2.0442,0.7298 -2.7598,2.1713 -3.0158,4.1248c-0.6257,4.7694 0.009,9.292 1.8105,13.8032c1.7729,4.4395 4.8103,7.9696 7.4421,11.8048c0.9012,1.3134 1.916,2.5571 2.7128,3.9289c0.3552,0.6115 0.4749,1.4785 0.404,2.2003c-0.6622,6.7633 -3.0687,13.059 -5.3029,19.3979c-0.1092,0.3101 -0.2665,0.6095 -0.4424,0.8875c-0.0801,0.1263 -0.2609,0.1889 -0.7346,0.5086c-0.4279,-2.3224 -0.7979,-4.4129 -1.2001,-6.497c-1.165,-6.0374 -3.3828,-11.6277 -7.2643,-16.4514c-1.0913,-1.3565 -2.2466,-2.8592 -4.2468,-2.9017c-2.5615,-0.054 -4.3388,1.3766 -4.8975,4.0833c-1.0409,5.0439 -0.9254,10.0919 1.4777,14.7157c2.4918,4.7939 5.3663,9.3929 8.1723,14.0175c0.6138,1.0118 1.5772,1.8527 2.5041,2.6227c1.0219,0.8485 1.4821,1.7032 0.8933,3.009c-2.7184,6.03 -5.3496,12.1004 -8.1276,18.1029c-1.7454,3.772 -3.5972,7.4953 -5.4565,11.2141l2.4998,-0.1843c0.3957,-0.8611 0.7866,-1.724 1.2019,-2.5748z" fill="#9FB86F"/>
            <path stroke="null" id="svg_27" d="m9226.00982,4269.68983c0.8326,-0.9681 1.5813,-2.4134 1.7133,-3.5979c0.5068,-4.5478 -3.3176,-9.4751 -7.4891,-9.5093c-1.313,-0.0105 -3.1827,0.6711 -4.1659,1.7257c-3.7347,4.0061 -5.3823,7.4239 -3.9572,12.1418c0.2106,0.6966 0.401,1.4031 0.5862,2.0543c-0.4709,0.4252 -0.969,0.8581 -1.4832,1.2951l10.3766,-0.7652c1.6055,-0.6749 3.1034,-1.8143 4.4193,-3.3445z" fill="#6F4B99"/>
            <path stroke="null" id="svg_28" d="m9188.27612,4273.32103c3.04,-2.7373 5.0209,-10.5247 3.4642,-13.5106c-2.7623,-5.2993 -8.0396,-6.5872 -13.8539,-3.3814c-7.6221,4.2028 -10.7308,13.3865 -6.3241,19.5925c0.1613,0.2271 0.2948,0.449 0.4245,0.6706l13.5148,-0.9966c0.9252,-0.7906 1.8674,-1.558 2.7745,-2.3745z" fill="#6F4B99"/>
            <path stroke="null" id="svg_29" d="m9310.73672,4127.61473c-4.5579,-1.008 -9.3641,0.0719 -13.1055,3.8588c-4.2311,4.2815 -7.2987,13.1809 -1.6756,18.6039c0.8206,0.7915 1.5522,1.6873 2.3195,2.529c-3.4026,8.9634 -7.7284,17.1103 -14.1382,25.1827c0.4185,-5.0131 0.7599,-9.104 1.0946,-13.1155c1.5675,-2.1161 3.2979,-4.1644 4.7,-6.4118c2.1515,-3.45 2.5283,-8.4163 0.5519,-10.5074c-1.6514,-1.7471 -3.7776,-3.0403 -5.8918,-4.1931c-1.9517,-1.0641 -4.1595,-0.4625 -6.3833,0.9436c-3.5078,2.2182 -6.0718,5.2858 -7.6599,9.1876c-1.3599,3.3417 -1.2877,6.2528 0.934,8.6529c2.7455,2.9655 5.6652,5.2079 10.367,3.5636c0.1815,-0.0634 0.4063,0.1785 0.8732,0.4059c0.5699,5.2341 -0.3227,10.7639 -2.8324,15.9908c-1.9123,3.9818 -4.6239,7.7225 -7.3352,11.2805c-4.0947,5.3733 -8.2524,10.7669 -12.8416,15.6447c-4.4573,4.738 -9.4897,8.8389 -14.2869,13.1964c-0.0846,0.0772 -0.3813,-0.1401 -0.8486,-0.3288c1.8437,-4.6139 3.618,-9.2853 5.6123,-13.882c0.4979,-1.1472 1.5895,-2.5318 2.6032,-2.9897c5.3372,-2.412 7.3911,-6.9312 7.9248,-12.1896c0.1844,-1.8197 -0.2635,-4.2448 -1.3704,-5.1667c-1.9935,-1.6605 -4.7,-2.3995 -7.1131,-3.515c-1.3264,-0.6137 -2.7505,-0.2642 -3.8059,1.0126c-2.3091,2.7948 -4.7927,5.5643 -6.5563,8.6833c-1.4777,2.6132 -1.5806,5.6063 0.4118,7.6684c1.455,1.5064 2.9182,3.0139 4.5021,4.3628c1.0174,0.8665 1.3607,1.8327 0.7916,3.3514c-1.5161,4.0479 -2.9371,8.1225 -4.5166,12.1519c-1.5123,3.8572 -3.9188,7.0929 -7.0311,9.8116c-1.8784,1.641 -3.6501,3.4382 -5.4837,5.1461c-7.5215,7.0039 -15.3107,13.6631 -22.2278,21.4458c-0.8206,0.9236 -1.6737,2.2603 -3.2695,2.2413c0.1062,-0.9499 0.0823,-1.7534 0.3004,-2.5223c1.9849,-6.9994 3.703,-14.0547 7.5883,-20.5964c1.0241,-1.7241 2.1259,-2.8408 3.8748,-3.3729c2.2208,-0.676 4.4175,-1.6748 6.6402,-2.2372c3.6154,-0.9146 6.024,-3.4843 7.7515,-6.8828c0.7994,-1.5719 1.2079,-3.3583 1.5992,-5.0622c1.6138,-7.0296 -2.4049,-12.2337 -8.9217,-11.5123c-4.7611,0.5267 -9.0544,2.7627 -12.9236,6.5335c-2.1337,2.0793 -3.2979,4.4913 -3.8029,7.2805c-0.6787,3.7462 0.0194,6.8455 2.4467,9.0367c2.033,1.8351 2.371,3.6802 0.9402,7.0809c-3.0292,7.1997 -5.2266,14.6622 -7.9348,21.9736c-0.9481,2.56 -2.2499,5.0737 -3.6628,7.4547c-0.9108,1.5352 -2.3687,2.7471 -3.4939,4.179c-0.9384,1.194 -1.8732,2.3908 -2.8105,3.5856l2.1272,-0.1569c0.4373,-0.5337 0.8652,-1.076 1.3049,-1.6074c3.2852,-3.9702 6.5782,-7.959 10.1091,-11.668c2.2838,-2.3997 4.8229,-5.0323 7.5614,-6.2976c6.8105,-3.1474 13.8006,-5.5714 20.8212,-8.3262c1.5772,3.2646 3.6587,5.5609 7.3979,5.3026c3.4235,-0.2364 6.5965,-1.4814 9.5888,-4.0862c5.0074,-4.3589 5.7278,-9.7322 5.5027,-15.2249c-0.0493,-1.1938 -1.1863,-2.6252 -2.2387,-2.98c-2.7367,-0.9228 -5.694,-1.3428 -8.5871,-1.8866c-0.8684,-0.1632 -1.8165,-0.0733 -2.8511,-0.1033c0.6805,-2.1473 1.7401,-3.4111 3.2301,-4.6276c4.5903,-3.7478 9.0533,-7.702 13.5792,-11.5555c1.1318,-0.9639 2.2894,-1.8984 3.4771,-2.7661c4.0311,-2.9449 8.4556,-3.1097 12.7217,-4.3556c1.7274,-0.5045 2.9438,0.1909 4.0205,1.5217c1.2329,1.5243 2.6677,3.0276 4.3784,3.8716c6.5328,3.2218 16.3996,-0.6721 17.6474,-12.1851c0.1823,-1.6823 -0.366,-3.8059 -1.3771,-4.8047c-1.7829,-1.7616 -4.0015,-3.2188 -6.3658,-4.0716c-3.8136,-1.3748 -7.5468,0.0951 -10.4807,4.1179c-1.4728,2.0191 -2.8104,4.2363 -3.7902,6.5055c-0.6765,1.5665 -1.4531,2.1944 -2.8171,2.5529c-2.9706,0.7809 -5.9331,1.6943 -8.9031,2.497c-0.7845,0.2121 -1.5832,0.2177 -2.8715,0.3813c3.9772,-5.1624 7.4991,-9.8833 11.1835,-14.4598c2.2634,-2.8113 4.8058,-5.3686 6.4647,-8.6653c0.3682,-0.7321 1.0464,-1.3208 1.5406,-2.0066c5.0421,-6.9949 10.0037,-14.0254 13.0999,-22.1294c0.6276,-1.6436 1.6741,-3.1734 2.0587,-3.886c3.7518,-1.3822 6.7449,-2.1839 9.5646,-3.5937c4.2516,-2.1263 8.4951,-8.949 8.2241,-13.2744c-0.3142,-5.0166 -2.5511,-8.5525 -7.225,-9.5864zm-76.9053,115.8388c-0.1353,0.5717 -0.6813,1.3633 -1.1677,1.6096c-4.5889,2.3229 -9.1096,5.0928 -14.3417,5.0924c5.6473,-5.168 11.2946,-10.3361 17.4715,-15.9886c-0.7445,3.5942 -1.289,6.4459 -1.9621,9.2866z" fill="#6F4B99"/>
            <path stroke="null" id="svg_30" d="m8783.02832,4270.00413c0.1853,-0.6512 0.3757,-1.3578 0.5862,-2.0539c1.4252,-4.7183 -0.2225,-8.1361 -3.9572,-12.1422c-0.9831,-1.0546 -2.8529,-1.7362 -4.1659,-1.7259c-4.1715,0.0343 -7.996,4.9616 -7.4892,9.5094c0.1319,1.1844 0.8807,2.6297 1.7133,3.5979c2.3274,2.7065 5.2116,4.2456 8.2852,4.0139c2.1333,-0.161 3.9158,0.6183 5.6745,2.0479c0.0396,0.0321 0.0802,0.0618 0.1199,0.0938l3.5633,0.2667c-1.574,-1.2272 -3.0405,-2.4433 -4.3301,-3.6076z" fill="#6F4B99"/>
            <path stroke="null" id="svg_31" d="m8800.27472,4269.08313c-1.1251,-1.4319 -2.5831,-2.6439 -3.4939,-4.179c-1.4128,-2.381 -2.7146,-4.8949 -3.6628,-7.4549c-2.7084,-7.3113 -4.9057,-14.774 -7.9349,-21.9731c-1.4307,-3.4012 -1.0927,-5.2462 0.9403,-7.0814c2.4273,-2.191 3.1253,-5.2903 2.4467,-9.0365c-0.505,-2.7888 -1.6693,-5.2012 -3.8029,-7.2804c-3.8692,-3.7708 -8.1626,-6.0066 -12.9237,-6.5336c-6.5168,-0.7215 -10.5354,4.4828 -8.9217,11.5124c0.3913,1.7039 0.7998,3.4901 1.5992,5.0622c1.7274,3.3985 4.1361,5.9682 7.7515,6.883c2.2227,0.5621 4.4193,1.5609 6.6401,2.2369c1.749,0.5322 2.8507,1.6487 3.8748,3.3728c3.8853,6.5417 5.6033,13.5971 7.5882,20.5969c0.218,0.7686 0.1942,1.5723 0.3004,2.5219c-1.5958,0.019 -2.4489,-1.3177 -3.2696,-2.2413c-6.917,-7.7828 -14.7062,-14.4421 -22.2277,-21.446c-1.8336,-1.708 -3.6054,-3.505 -5.4837,-5.146c-3.1123,-2.7187 -5.5188,-5.9544 -7.0311,-9.8116c-1.5795,-4.0295 -3.0005,-8.1038 -4.5166,-12.1519c-0.5691,-1.5187 -0.2258,-2.485 0.7916,-3.3514c1.5839,-1.3488 3.0471,-2.8564 4.5021,-4.3628c1.9924,-2.0621 1.8895,-5.0551 0.4118,-7.6683c-1.7635,-3.119 -4.2471,-5.8885 -6.5563,-8.6833c-1.0554,-1.2768 -2.4795,-1.6264 -3.8058,-1.0126c-2.4132,1.1159 -5.1196,1.8545 -7.1131,3.5149c-1.1069,0.922 -1.5549,3.3472 -1.3704,5.1669c0.5337,5.2583 2.5876,9.7776 7.9248,12.1895c1.0137,0.4579 2.1053,1.8425 2.6032,2.9896c1.9942,4.5967 3.7686,9.2683 5.6123,13.8822c-0.4674,0.1889 -0.764,0.4059 -0.8486,0.3286c-4.7973,-4.357 -9.8297,-8.4584 -14.2869,-13.196c-4.5893,-4.8781 -8.7469,-10.2716 -12.8417,-15.6449c-2.7112,-3.558 -5.4229,-7.2987 -7.3352,-11.2805c-2.5097,-5.227 -3.4023,-10.7569 -2.8324,-15.9908c0.4669,-0.2273 0.6917,-0.4692 0.8732,-0.406c4.7019,1.6444 7.6215,-0.5981 10.3671,-3.5636c2.2216,-2.4 2.2939,-5.3111 0.9339,-8.653c-1.588,-3.9016 -4.1521,-6.9692 -7.6598,-9.1872c-2.2238,-1.406 -4.4316,-2.008 -6.3834,-0.944c-2.1143,1.1527 -4.2404,2.4463 -5.8918,4.1932c-1.9767,2.0911 -1.5996,7.0575 0.5519,10.5074c1.4021,2.2477 3.1324,4.2957 4.6999,6.4118c0.3347,4.0116 0.6761,8.1025 1.0946,13.1155c-6.4098,-8.0724 -10.7356,-16.2193 -14.1382,-25.1828c0.7673,-0.8416 1.499,-1.7375 2.3196,-2.5291c5.6231,-5.4226 2.5555,-14.3219 -1.6756,-18.6038c-3.7414,-3.7868 -8.5476,-4.8668 -13.1056,-3.8587c-4.6738,1.0338 -6.9107,4.5698 -7.2249,9.5863c-0.271,4.3254 3.9725,11.148 8.2241,13.2742c2.8198,1.4099 5.8128,2.2115 9.5647,3.5938c0.3846,0.7125 1.4311,2.2424 2.0587,3.8864c3.0963,8.1036 8.0578,15.134 13.0999,22.1293c0.4941,0.6855 1.1725,1.2742 1.5407,2.0063c1.6588,3.2967 4.2009,5.8541 6.4646,8.6653c3.6844,4.5766 7.2063,9.2975 11.1836,14.4603c-1.2884,-0.1637 -2.0871,-0.1696 -2.8716,-0.3817c-2.9699,-0.8029 -5.9324,-1.7162 -8.9031,-2.497c-1.364,-0.3582 -2.1407,-0.9861 -2.8171,-2.5526c-0.9798,-2.2697 -2.3174,-4.4868 -3.7902,-6.506c-2.9338,-4.0227 -6.667,-5.4926 -10.4807,-4.1174c-2.3643,0.8524 -4.583,2.3095 -6.3659,4.0712c-1.0111,0.9988 -1.5593,3.1223 -1.3771,4.8047c1.2477,11.513 11.1146,15.4069 17.6474,12.185c1.7106,-0.8438 3.1454,-2.3471 4.3783,-3.8712c1.0767,-1.3312 2.2931,-2.0265 4.0205,-1.522c4.2661,1.2459 8.6907,1.411 12.7217,4.3556c1.1878,0.8676 2.3453,1.8023 3.4772,2.766c4.5259,3.8536 8.9888,7.8079 13.5792,11.5555c1.49,1.2165 2.5496,2.4804 3.2301,4.6277c-1.0346,0.0298 -1.9827,-0.0599 -2.8511,0.1033c-2.8932,0.5438 -5.8504,0.9637 -8.587,1.8865c-1.0525,0.3549 -2.1896,1.7863 -2.2387,2.98c-0.2251,5.4927 0.4953,10.8663 5.5027,15.225c2.9923,2.6048 6.1653,3.8498 9.5888,4.0861c3.7392,0.2583 5.8206,-2.0378 7.3978,-5.3022c7.0207,2.7545 14.0108,5.1786 20.8212,8.3258c2.7385,1.2654 5.2777,3.898 7.5615,6.2978c3.5308,3.7089 6.8239,7.6978 10.1091,11.6679c1.0565,1.2768 2.0915,2.573 3.1348,3.8617l2.0621,0.1542c-1.5248,-1.9456 -3.0476,-3.8934 -4.5751,-5.837zm-37.2131,-26.5203c-0.4863,-0.2464 -1.0323,-1.038 -1.1676,-1.6093c-0.6731,-2.841 -1.2176,-5.6928 -1.9622,-9.287c6.1769,5.6525 11.8242,10.8205 17.4715,15.9885c-5.2321,0.0006 -9.7528,-2.7693 -14.3417,-5.0922z" fill="#6F4B99"/>
            <path stroke="null" id="svg_32" d="m8824.16322,4273.52113c4.4066,-6.206 1.2981,-15.3897 -6.3241,-19.5925c-5.8142,-3.2059 -11.0915,-1.9175 -13.8538,3.3814c-1.5567,2.9859 0.4241,10.7731 3.4641,13.5106c1.2366,1.1135 2.5562,2.1105 3.7783,3.2419c0.5906,0.547 1.1915,1.0362 1.8055,1.47l9.9332,0.7431c0.1461,-0.9204 0.5254,-1.8092 1.1968,-2.7545z" fill="#6F4B99"/>
            <g stroke="null" id="svg_33">
            <g stroke="null" id="svg_34">
            <path stroke="null" id="svg_35" d="m9132.98702,4279.79493c0.4733,-0.0935 0.9444,-0.1968 1.4162,-0.2959c0.3429,-0.189 0.6783,-0.2918 1.0133,-0.3004c-0.2925,-0.8713 -0.5765,-1.7319 -0.9138,-2.5c-1.7684,-4.0262 -3.6885,-7.9893 -5.3972,-12.0389c-0.6649,-1.5757 -1.3625,-3.3366 -1.2831,-4.9776c0.212,-4.3705 0.9235,-8.7152 1.275,-13.0828c0.3391,-4.2143 0.4763,-8.4439 0.71,-12.8182c1.0837,-0.3742 2.0114,-0.8382 2.9919,-1.0107c9.1439,-1.6055 10.6846,-9.9239 8.9482,-16.2644c-1.111,-4.0563 -3.3341,-7.6487 -7.0211,-10.3801c-5.2131,-3.8622 -9.152,-3.8662 -13.6329,0.7357c-6.3912,6.5638 -6.7698,15.7635 -0.6652,22.4808c1.6252,1.7889 3.952,2.964 6.484,4.8039c-0.1033,6.8548 0.5359,14.2683 -1.6346,22.2177c-0.8505,-1.0409 -1.4572,-1.5668 -1.7922,-2.2257c-6.5224,-12.8256 -13.0317,-25.658 -19.4803,-38.5201c-0.5665,-1.1303 -1.1628,-2.5603 -0.9444,-3.7037c1.2899,-6.7549 3.3854,-13.274 6.7109,-19.7893c1.3782,0.2706 2.652,0.571 3.9426,0.7655c8.8021,1.3279 14.3719,-3.1034 15.0111,-11.8563c0.3678,-5.0372 -0.4857,-9.4006 -4.8502,-12.9106c-5.7141,-4.5956 -16.3196,-3.5744 -19.1859,4.6578c-2.0203,5.8024 -3.1354,11.254 1.1173,16.5719c0.5505,0.6884 0.8401,2.0229 0.5624,2.8302c-1.7371,5.0473 -3.6695,10.0294 -5.8769,15.9431c-8.8618,-18.2165 -16.6696,-35.7853 -21.4995,-54.2817c2.8268,-3.1354 5.3715,-5.9578 8.0001,-8.8729c1.7028,0.7719 3.2651,1.5873 4.9045,2.2041c6.2078,2.3341 12.5085,1.1065 16.3449,-3.2867c2.8701,-3.286 3.5834,-6.771 2.4873,-11.3002c-0.8784,-3.6307 -2.342,-6.5623 -5.3182,-8.0549c-3.8934,-1.9532 -8.0776,-3.8733 -12.835,-2.7407c-5.1345,1.2224 -7.7429,4.0597 -8.4346,9.9895c-0.2855,2.4445 -0.5046,5.0805 0.1226,7.4008c0.9813,3.6314 -0.2828,5.8866 -3.1797,7.8141c-0.8292,0.5519 -1.3991,1.4803 -2.0874,2.2361c-0.3529,-0.2601 -0.7059,-0.5203 -1.0584,-0.7808c-0.3004,-1.787 -0.6216,-3.5711 -0.8989,-5.3618c-2.5011,-16.1362 -0.843,-32.054 2.4575,-47.9155c0.7435,-3.5726 2.0934,-5.5236 6.2328,-5.9518c7.6375,-0.7905 10.8769,-5.3518 10.6682,-11.7929c-0.2359,-7.2912 -2.2361,-11.1668 -10.3193,-13.4588c-11.0185,-3.1246 -15.7963,1.2448 -14.9876,14.4047c0.2274,3.7034 2.1862,6.7016 4.9005,9.0876c1.67,1.4684 2.1497,2.9226 1.7013,4.9937c-0.6801,3.1454 -1.2955,6.3148 -1.7088,9.5024c-0.7137,5.5072 -1.25,11.0371 -1.8642,16.5569c-0.1073,0.9682 -0.2292,1.9346 -0.4607,3.8726c-3.6095,-3.6933 -6.6543,-6.8131 -8.7592,-10.6037c-0.5341,-0.9619 0.183,-2.7639 0.6556,-4.0645c2.2257,-6.1266 0.969,-11.5645 -3.782,-15.9185c-3.7529,-3.4399 -8.1003,-4.1335 -12.8752,-2.6617c-4.7033,1.4498 -6.7549,5.007 -7.5033,9.4834c-1.3268,7.9378 2.8678,14.7431 10.2686,16.734c2.7016,0.7267 6.4199,0.3529 11.2544,-1.326c3.4727,4.0071 6.9484,7.9852 10.3666,12.0102c0.338,0.3976 0.407,1.0726 0.4659,1.6324c0.7305,6.9495 1.4546,13.8997 2.1314,20.8548c0.1237,1.2746 0.028,2.5693 0.038,4.9448c-3.1589,-5.1781 -7.3259,-6.9961 -12.2495,-7.2975c-2.3185,-0.142 -4.855,-0.6026 -6.9238,0.1107c-2.0964,0.7226 -4.2684,2.38 -5.4778,4.2173c-3.3598,5.1039 -4.5207,10.6506 -2.1254,16.6434c3.1462,7.8715 14.5985,11.4944 21.7392,6.7162c0.7267,-0.4864 1.3536,-1.1162 2.1355,-1.7703c4.2002,2.9565 8.0705,5.6313 11.8686,8.4007c0.6705,0.489 1.174,1.3159 1.5288,2.087c6.4366,13.9769 12.8036,27.9843 19.2723,41.947c1.6387,3.5372 3.5781,6.9398 5.3581,10.3629c-0.7793,0.4506 -1.1229,0.7677 -1.2414,0.701c-4.1119,-2.3237 -8.2118,-4.6675 -12.2908,-7.0456c-1.6115,-0.9395 -1.8243,-2.396 -1.7762,-4.1584c0.0828,-3.0515 -0.1282,-6.1143 -0.3019,-9.1677c-0.2594,-4.5527 -3.204,-7.3281 -7.1835,-8.5874c-3.6262,-1.1471 -7.5778,-1.7867 -11.3856,-1.7841c-5.215,0.0034 -8.3828,3.4977 -10.1911,7.942c-4.5695,11.2343 3.9911,23.9839 16.2249,24.0331c4.9929,0.0201 8.8666,-2.0997 11.8775,-6.1892c1.023,0.3447 2.0143,0.5735 2.9095,0.998c5.9227,2.8101 11.4653,6.2283 16.3859,10.5161c1.282,1.1169 2.2398,2.7012 3.0363,4.227c3.8055,7.2867 7.4101,14.6749 11.2641,21.9359c1.9856,3.741 3.5389,7.5559 4.613,11.481zm-57.7239,-109.4539l2.0897,-10.9827c0,0 4.1786,9.2255 4.9247,12.7399c0.7465,3.5144 0.7465,3.5144 0.7465,3.5144l-7.7609,-5.2716z" fill="#A9163F"/>
            <path stroke="null" id="svg_36" d="m9121.03012,4280.56563c-0.3455,-0.4666 -0.6548,-0.8806 -1.0193,-1.3782c0.4525,-0.944 1.2709,-2.4709 1.932,-4.0608c3.7693,-9.0641 -1.1255,-19.1542 -10.3245,-20.525c-3.4209,-0.5095 -7.0732,0.2776 -10.5892,0.7133c-0.8914,0.1103 -1.8131,1.0152 -2.469,1.7669c-7.1858,8.2423 -6.307,19.5325 1.6551,26.2874c2.3621,2.0043 5.2366,2.8582 8.35,1.9562c2.9781,-0.8628 5.8989,-1.9167 9.4819,-3.0963c0.0883,0.0827 0.1971,0.1707 0.2899,0.2542c0.3105,-1.1489 1.2486,-2.0273 2.6931,-1.9177z" fill="#A9163F"/>
            <path stroke="null" id="svg_37" d="m9170.77702,4259.49503c-0.5657,-1.3857 0.0086,-3.2025 -0.4982,-4.6306c-1.1103,-3.1298 -3.7385,-4.9336 -6.8492,-5.7953c-5.1874,-1.4374 -10.4117,-2.2171 -15.8344,-0.7443c-3.0187,0.8199 -4.9418,2.3476 -6.1333,5.1558c-2.6312,6.2015 -2.0154,14.114 1.9865,21.3508c-0.9791,1.6436 -2.0938,3.2349 -3.52,4.7376c1.4207,-0.3145 2.8458,-0.6093 4.2885,-0.8221c0.7021,-0.1036 1.2522,0.0712 1.7177,0.3488c3.5121,0.6097 6.7236,1.3286 9.9466,1.4963c5.9373,0.3093 10.2985,-2.4016 12.9072,-7.6949c2.097,-4.2541 3.9963,-8.4852 1.9886,-13.4021z" fill="#A9163F"/>
            </g>
            <g stroke="null" id="svg_38">
            <path stroke="null" id="svg_39" d="m8867.35152,4265.81323c3.854,-7.261 7.4586,-14.6492 11.2641,-21.9359c0.7964,-1.5254 1.7542,-3.11 3.0363,-4.227c4.9206,-4.2874 10.4632,-7.7061 16.3859,-10.5161c0.8952,-0.4241 1.8865,-0.6529 2.9096,-0.998c3.0109,4.0895 6.8846,6.2093 11.8775,6.1892c12.2338,-0.0492 20.7944,-12.7988 16.2249,-24.0331c-1.8083,-4.4443 -4.9761,-7.9382 -10.1911,-7.9419c-3.8077,-0.0026 -7.7593,0.6369 -11.3856,1.784c-3.9796,1.2593 -6.9241,4.0347 -7.1835,8.5874c-0.1737,3.0534 -0.3846,6.1165 -0.3019,9.1677c0.0481,1.7624 -0.1647,3.2189 -1.7762,4.1584c-4.079,2.3781 -8.179,4.7223 -12.2908,7.0457c-0.1185,0.0667 -0.4621,-0.2505 -1.2414,-0.701c1.7799,-3.4228 3.7194,-6.8258 5.3581,-10.3629c6.4687,-13.9627 12.8357,-27.9701 19.2724,-41.947c0.3548,-0.7711 0.8583,-1.5977 1.5287,-2.087c3.798,-2.7694 7.6684,-5.4442 11.8686,-8.4007c0.7819,0.6541 1.4088,1.2839 2.1355,1.7703c7.1407,4.7782 18.593,1.1553 21.7392,-6.7162c2.3952,-5.9928 1.2343,-11.5395 -2.1254,-16.6434c-1.2094,-1.837 -3.3814,-3.4943 -5.4778,-4.2173c-2.0688,-0.7133 -4.6053,-0.2527 -6.9238,-0.1107c-4.9236,0.3015 -9.0905,2.1195 -12.2495,7.2976c0.0101,-2.3751 -0.0857,-3.6702 0.038,-4.9448c0.6768,-6.9547 1.4009,-13.9053 2.1314,-20.8548c0.0589,-0.5598 0.1278,-1.2347 0.4659,-1.6324c3.4183,-4.025 6.894,-8.0031 10.3667,-12.0098c4.8345,1.6786 8.5528,2.0524 11.2544,1.3257c7.4008,-1.9909 11.5954,-8.7961 10.2686,-16.734c-0.7484,-4.4763 -2.8,-8.0336 -7.5033,-9.4834c-4.7748,-1.4717 -9.1222,-0.7782 -12.8752,2.6617c-4.751,4.3541 -6.0077,9.792 -3.782,15.9185c0.4726,1.3007 1.1896,3.1026 0.6555,4.0645c-2.1049,3.7906 -5.1498,6.9103 -8.7592,10.6037c-0.2314,-1.938 -0.3533,-2.9043 -0.4606,-3.8726c-0.6142,-5.5198 -1.1505,-11.0494 -1.8642,-16.5569c-0.4133,-3.1876 -1.0286,-6.3569 -1.7088,-9.502c-0.4484,-2.0714 0.0313,-3.5256 1.7013,-4.9936c2.7143,-2.3863 4.6731,-5.3846 4.9005,-9.088c0.8087,-13.1599 -3.9691,-17.5293 -14.9876,-14.4047c-8.0832,2.292 -10.0834,6.1676 -10.3193,13.4592c-0.2087,6.4408 3.0307,11.0021 10.6682,11.7925c4.1394,0.4282 5.4893,2.3792 6.2328,5.9518c3.3005,15.8615 4.9586,31.7793 2.4575,47.9155c-0.2773,1.7908 -0.5985,3.5748 -0.8989,5.3618c-0.3526,0.2605 -0.7055,0.5206 -1.0584,0.7808c-0.6884,-0.7558 -1.2582,-1.6842 -2.0874,-2.2361c-2.8969,-1.9275 -4.161,-4.1823 -3.1797,-7.8141c0.6272,-2.3203 0.4081,-4.9563 0.1226,-7.4004c-0.6917,-5.9302 -3.3001,-8.7675 -8.4346,-9.9898c-4.7573,-1.1326 -8.9415,0.7875 -12.8349,2.7407c-2.9763,1.493 -4.4398,4.4242 -5.3182,8.0552c-1.0961,4.5289 -0.3828,8.0139 2.4873,11.2998c3.8364,4.3932 10.1371,5.6209 16.3449,3.2867c1.6394,-0.6168 3.2018,-1.4323 4.9045,-2.2041c2.6286,2.9151 5.1732,5.7375 8.0001,8.8729c-4.83,18.4964 -12.6378,36.0656 -21.4995,54.2818c-2.2074,-5.9138 -4.1398,-10.8959 -5.8769,-15.9431c-0.2777,-0.8073 0.0119,-2.1418 0.5624,-2.8302c4.2527,-5.3179 3.1376,-10.7695 1.1173,-16.5719c-2.8663,-8.2323 -13.4719,-9.2534 -19.1859,-4.6578c-4.3645,3.5099 -5.218,7.8734 -4.8502,12.9106c0.6392,8.7529 6.209,13.1845 15.0111,11.8563c1.2906,-0.1945 2.5645,-0.4949 3.9426,-0.7655c3.3255,6.5153 5.4211,13.0343 6.711,19.7892c0.2184,1.1438 -0.3779,2.5734 -0.9444,3.7038c-6.4486,12.8622 -12.9579,25.6945 -19.4803,38.5201c-0.3351,0.6589 -0.9418,1.1848 -1.7923,2.2257c-2.1705,-7.949 -1.5314,-15.3629 -1.6346,-22.2177c2.532,-1.84 4.8587,-3.015 6.484,-4.8036c6.1046,-6.7177 5.726,-15.9174 -0.6653,-22.4812c-4.4808,-4.6019 -8.4197,-4.5974 -13.6328,-0.7357c-3.687,2.7314 -5.9101,6.3237 -7.0211,10.38c-1.7363,6.3405 -0.1956,14.6589 8.9482,16.2648c0.9805,0.1722 1.9081,0.6362 2.9919,1.0104c0.2337,4.3742 0.3708,8.6038 0.71,12.8181c0.3514,4.3675 1.0629,8.7123 1.2749,13.0828c0.0794,1.6409 -0.6183,3.4019 -1.2831,4.9776c-1.7088,4.0496 -3.6288,8.0128 -5.3972,12.0389c-0.3373,0.7681 -0.6213,1.6286 -0.9138,2.5c0.3351,0.0086 0.6705,0.1115 1.0133,0.3004c0.4718,0.0992 0.9429,0.2024 1.4162,0.2959c1.0738,-3.9251 2.6271,-7.7396 4.6128,-11.4813zm45.35,-92.7009c0,0 0,0 0.7465,-3.5144c0.7461,-3.5144 4.9247,-12.7399 4.9247,-12.7399l2.0897,10.9827l-7.7609,5.2716z" fill="#A9163F"/>
            <path stroke="null" id="svg_40" d="m8874.69532,4278.06533c0.3455,-0.4666 0.6548,-0.8803 1.0193,-1.3782c-0.4525,-0.944 -1.2709,-2.4709 -1.932,-4.0608c-3.7693,-9.0641 1.1255,-19.1542 10.3245,-20.525c3.4209,-0.5095 7.0732,0.2777 10.5891,0.7133c0.8914,0.1103 1.8131,1.0152 2.469,1.7669c7.1858,8.2423 6.307,19.5325 -1.6551,26.2874c-2.3621,2.0043 -5.2366,2.8581 -8.35,1.9562c-2.9781,-0.8628 -5.8989,-1.9167 -9.4819,-3.0963c-0.0883,0.0827 -0.1971,0.1707 -0.2899,0.2542c-0.3104,-1.1489 -1.2485,-2.0273 -2.693,-1.9177z" fill="#A9163F"/>
            <path stroke="null" id="svg_41" d="m8824.94842,4256.99473c0.5657,-1.3853 -0.0086,-3.2025 0.4983,-4.6306c1.1102,-3.1298 3.7384,-4.9336 6.8492,-5.7953c5.1874,-1.4375 10.4117,-2.2171 15.8343,-0.7443c3.0188,0.8203 4.9418,2.3475 6.1333,5.1557c2.6312,6.2015 2.0155,14.1144 -1.9864,21.3508c0.979,1.6436 2.0938,3.2349 3.52,4.7376c-1.4207,-0.3145 -2.8458,-0.6089 -4.2885,-0.8221c-0.7021,-0.1036 -1.2522,0.0712 -1.7177,0.3488c-3.5122,0.6097 -6.7236,1.3286 -9.9466,1.4963c-5.9373,0.3093 -10.2985,-2.4016 -12.9073,-7.6949c-2.0971,-4.2541 -3.9963,-8.4852 -1.9886,-13.402z" fill="#A9163F"/>
            </g>
            </g>
        </g>
        </g>
        <text style="cursor: move;" stroke="#000" transform="matrix(1.1794450283050533,0,0,1.1794450283050533,-70.1271368265152,-26.0929114818573) " xml:space="preserve" text-anchor="start" font-family="'Simonetta', serif" font-size="24" id="svg_44" y="249.70429" x="330.34786" stroke-width="0" fill="#000000">Life is the flower</text>
        <text xml:space="preserve" text-anchor="start" font-family="'Simonetta', serif" font-size="24" id="svg_45" y="311.4" x="289.5" stroke-width="0" stroke="#000" fill="#000000">for which love is the honey.</text>
        </g>
    </svg>