<svg width="126" height="124" xmlns="http://www.w3.org/2000/svg">
 <g>
  <title>background</title>
  <rect fill="none" id="canvas_background" height="126" width="128" y="-1" x="-1"/>
 </g>
 <g>
  <title>Layer 1</title>
  <g stroke="null" id="svg_1">
   <g stroke="null" id="svg_2">
    <path stroke="null" id="svg_3" d="m115.67585,74.33963c0.02751,-0.65766 -0.01999,-1.48439 -0.47142,-2.199c-0.43912,-0.71692 -1.12638,-1.16421 -1.70402,-1.43543c-0.57768,-0.27094 -1.04446,-0.36875 -1.04446,-0.36875s-0.10328,0.4429 -0.09409,1.05838c0.02516,0.62046 0.09109,1.39799 0.50349,2.10739c0.40959,0.70793 1.06912,1.20948 1.62611,1.53041c0.35395,0.20421 0.66662,0.3342 0.8481,0.40207c-0.10393,0.32745 -0.21319,0.6626 -0.32842,1.00552c-0.66858,2.01909 -1.54832,4.2946 -2.70633,6.69349c0.0652,-0.5291 0.03468,-1.13082 -0.17327,-1.69355c-0.29041,-0.78191 -0.8793,-1.3471 -1.39449,-1.71929c-0.51547,-0.37223 -0.95595,-0.55435 -0.95595,-0.55435s-0.18973,0.41261 -0.30344,1.01486c-0.1186,0.60002 -0.1364,1.40414 0.11244,2.16586c0.26427,0.76815 0.8152,1.38172 1.30159,1.79991c0.25367,0.21818 0.48938,0.38203 0.65742,0.48938c-0.1524,0.29192 -0.30754,0.58474 -0.46838,0.87917c-1.28951,2.36837 -2.85679,4.80767 -4.69232,7.20492c0.1304,-0.52351 0.18959,-1.08856 0.09913,-1.66767c-0.17171,-1.12106 -0.80031,-2.02921 -1.38175,-2.66238c-0.58198,-0.63198 -1.11461,-0.99362 -1.11461,-0.99362s-0.35152,0.4835 -0.64994,1.23853c-0.28853,0.76373 -0.61322,1.74058 -0.46027,2.84552c0.14191,1.09604 0.6521,2.05023 1.16602,2.75394c0.20132,0.27745 0.39869,0.51039 0.5642,0.69151c-0.14351,0.16923 -0.28755,0.33832 -0.4338,0.50671c-2.27876,2.64942 -4.74938,4.94246 -7.20008,6.899c0.26366,-0.42441 0.48463,-0.92257 0.55023,-1.46721c0.0913,-0.82826 -0.19553,-1.61396 -0.48923,-2.17825c-0.29639,-0.56711 -0.60797,-0.92813 -0.60797,-0.92813s-0.34348,0.29797 -0.70956,0.79309c-0.38033,0.47802 -0.78203,1.15949 -0.87992,1.97948c-0.09109,0.82706 0.1085,1.59774 0.35858,2.1924c0.12294,0.29452 0.25417,0.53844 0.35471,0.70877c-0.08605,0.06453 -0.17224,0.13012 -0.25812,0.19382c-2.99335,2.21735 -5.90917,3.90573 -8.42997,5.17317c-0.06412,0.03185 -0.12678,0.06232 -0.19035,0.09367c0.21105,-0.17161 0.42639,-0.37173 0.6231,-0.6012c0.24636,-0.30201 0.4568,-0.66129 0.59027,-1.05636c0.26645,-0.79386 0.16483,-1.60538 0.0001,-2.221c-0.16548,-0.61453 -0.39206,-1.03414 -0.39206,-1.03414s-0.40607,0.20383 -0.87269,0.60324c-0.2334,0.2003 -0.48272,0.44959 -0.70645,0.74794c-0.23126,0.28375 -0.43746,0.61651 -0.57633,0.99973c-0.27839,0.76821 -0.23596,1.5938 -0.12153,2.22598c0.07411,0.41064 0.17956,0.73831 0.24455,0.91822c-2.91011,1.36274 -5.13307,2.14871 -6.24255,2.5685c-0.18397,-0.08061 -0.49503,-0.20414 -0.87887,-0.30637c-0.62405,-0.1524 -1.45078,-0.30909 -2.26482,-0.10989c-0.40825,0.09818 -0.7758,0.28202 -1.10561,0.48457c-0.3319,0.19303 -0.62176,0.42136 -0.86294,0.6403c-0.48086,0.43811 -0.76552,0.8378 -0.76552,0.8378s0.40171,0.26737 1.02856,0.49162c0.31323,0.1124 0.68357,0.21289 1.08454,0.26458c0.39891,0.04217 0.8255,0.01916 1.25508,-0.08414c0.859,-0.21029 1.55186,-0.71924 2.00141,-1.22139c0.27655,-0.29692 0.47139,-0.56887 0.58216,-0.73722c0.39821,-0.08593 0.92727,-0.21637 1.57648,-0.39741c1.23611,-0.37332 2.92568,-0.89832 4.90298,-1.72687c0.08866,0.16796 0.2616,0.46699 0.52261,0.7947c0.39881,0.50039 1.00515,1.0643 1.84423,1.31322c0.41958,0.12506 0.85744,0.15966 1.27708,0.13999c0.4127,-0.03415 0.80722,-0.1219 1.14941,-0.22359c0.68523,-0.20325 1.15758,-0.4596 1.15758,-0.4596s-0.23257,-0.41673 -0.67599,-0.88568c-0.44365,-0.46961 -1.09597,-0.99235 -1.92011,-1.2152c-0.41335,-0.11252 -0.82746,-0.13339 -1.22325,-0.11479c-0.30677,0.00719 -0.59964,0.04401 -0.86692,0.09471c0.06028,-0.02771 0.11965,-0.05429 0.18033,-0.08256c2.60403,-1.19143 5.6176,-2.83563 8.70533,-5.04931c0.08826,-0.06338 0.17684,-0.12877 0.26525,-0.19303c0.13369,0.14692 0.33135,0.34627 0.58466,0.55182c0.49611,0.39916 1.22945,0.8449 2.08873,0.88962c0.865,0.05227 1.72034,-0.26879 2.35518,-0.60087c0.62194,-0.35047 1.01774,-0.71401 1.01774,-0.71401s-0.31688,-0.35616 -0.84918,-0.71592c-0.53517,-0.36322 -1.2726,-0.71837 -2.12837,-0.76139c-0.57477,-0.0343 -1.12291,0.08071 -1.60167,0.24868c2.52554,-1.96538 5.06593,-4.29328 7.3946,-7.00013c0.14944,-0.17201 0.29649,-0.3448 0.44296,-0.51777c0.20585,0.13304 0.46853,0.2877 0.7775,0.43659c0.77569,0.36991 1.87438,0.72052 3.03439,0.50237c1.14846,-0.22585 2.2159,-0.91828 2.90917,-1.61012c0.70507,-0.68406 1.1198,-1.29873 1.1198,-1.29873s-0.53735,-0.35428 -1.36227,-0.63883c-0.82399,-0.28506 -1.93285,-0.50462 -3.05551,-0.26258c-0.58502,0.12789 -1.13467,0.35558 -1.62299,0.62692c1.86957,-2.46101 3.44948,-4.97386 4.72896,-7.41447c0.15966,-0.30334 0.31307,-0.60499 0.46356,-0.90574c0.18477,0.07113 0.44894,0.15991 0.76432,0.22908c0.62618,0.13698 1.45459,0.19351 2.26768,-0.14071c0.82866,-0.32595 1.41436,-1.01336 1.82605,-1.5989c0.40775,-0.58825 0.61533,-1.08434 0.61533,-1.08434s-0.44307,-0.17634 -1.08446,-0.26029c-0.64135,-0.08454 -1.48001,-0.07963 -2.26334,0.26634c-0.56224,0.24692 -1.0105,0.63873 -1.37849,1.03156c1.12827,-2.4634 1.95746,-4.79972 2.5594,-6.87026c0.11262,-0.34903 0.21109,-0.69243 0.30048,-1.02902c0.18626,0.04057 0.52376,0.10033 0.93907,0.11186c0.63838,0.01794 1.45882,-0.08121 2.18782,-0.56183c0.72657,-0.4806 1.24013,-1.24811 1.50593,-1.90655c0.2823,-0.65511 0.38758,-1.18214 0.38758,-1.18214s-0.46823,-0.09137 -1.11197,-0.05492c-0.64359,0.03571 -1.46165,0.19665 -2.15946,0.68336c-0.66734,0.48193 -1.16501,1.16983 -1.46404,1.75928c0.13322,-0.54931 0.26735,-1.06996 0.36905,-1.56416c0.20223,-1.11953 0.39786,-2.07798 0.4998,-2.87123c0.18781,-1.58898 0.25312,-2.46807 0.17333,-2.47898c-0.19727,-0.03393 -0.50889,2.58698 -1.7466,6.74772z" fill="#679E73"/>
    <path stroke="null" id="svg_4" d="m72.69781,113.59611c-0.41936,0.02399 -1.03479,0.07232 -1.82362,0.14994c-1.13678,0.11296 -2.6462,0.21784 -4.4571,0.26332c0.30748,-0.08228 0.64518,-0.19324 0.97284,-0.36737c0.34218,-0.1916 0.67277,-0.43838 0.9466,-0.7545c0.54827,-0.63158 0.76266,-1.42086 0.84306,-2.05227c0.08037,-0.63081 0.02969,-1.10521 0.02969,-1.10521s-0.45259,0.03299 -1.03554,0.22435c-0.58314,0.19748 -1.29959,0.54308 -1.84961,1.13129c-0.54818,0.60201 -0.82341,1.38112 -0.95776,2.00826c-0.0868,0.40355 -0.11407,0.74381 -0.12272,0.93596c-0.34363,0.00325 -0.69607,0.00433 -1.05756,0.00283c-2.12505,-0.00652 -4.55516,-0.16771 -7.18987,-0.53256c0.52103,-0.10863 1.07789,-0.31064 1.54575,-0.67532c0.65392,-0.50563 1.01072,-1.24403 1.20761,-1.86019c0.19627,-0.61128 0.23408,-1.08655 0.23408,-1.08655c0.00007,-0.00059 -0.45368,-0.02441 -1.06117,0.03548c-0.6088,0.06957 -1.37708,0.26949 -2.03053,0.78074c-0.64974,0.4865 -1.06143,1.19154 -1.30877,1.78228c-0.12751,0.30376 -0.20997,0.57522 -0.26018,0.76763c-0.3252,-0.05412 -0.6521,-0.11022 -0.9824,-0.17057c-2.65281,-0.49016 -5.46776,-1.2037 -8.31856,-2.20546c0.01931,-0.00157 0.03843,-0.00234 0.05783,-0.0042c0.52667,-0.05678 1.06783,-0.18795 1.57113,-0.43635c1.00678,-0.49624 1.6708,-1.36451 2.09634,-2.12801c0.42145,-0.75603 0.59997,-1.37532 0.59997,-1.37532s-0.14443,-0.04067 -0.39031,-0.08474c-0.24385,-0.04993 -0.58438,-0.12049 -0.98759,-0.15154c-0.80775,-0.06111 -1.85992,0.00332 -2.84566,0.44455c-0.99174,0.4607 -1.75431,1.27917 -2.2623,1.98336c-0.19899,0.27538 -0.35766,0.53213 -0.47782,0.74364c-0.20527,-0.08513 -0.41053,-0.1709 -0.61571,-0.25924c-3.20913,-1.36642 -6.16061,-2.9812 -8.7795,-4.69815c0.47965,0.11947 1.02319,0.16339 1.56303,0.04795c0.81758,-0.17101 1.46559,-0.66944 1.91157,-1.12279c0.44547,-0.45408 0.69193,-0.86262 0.69193,-0.86262s-0.38005,-0.24779 -0.95979,-0.44959c-0.58107,-0.19888 -1.36423,-0.35208 -2.15757,-0.21655c-0.80026,0.14748 -1.49052,0.60134 -1.97688,1.01904c-0.24653,0.21184 -0.44025,0.41497 -0.57163,0.56411c-0.08778,-0.06185 -0.17666,-0.12346 -0.26357,-0.18549c-3.03553,-2.15969 -5.53863,-4.41849 -7.50959,-6.43699c-0.04496,-0.04603 -0.08833,-0.09116 -0.13279,-0.13691c0.52605,0.32315 1.20128,0.61868 1.92893,0.63668c0.8305,0.01615 1.58807,-0.34658 2.1217,-0.6919c0.53638,-0.34863 0.86622,-0.69344 0.86622,-0.69344s-0.3312,-0.31132 -0.85574,-0.63183c-0.51186,-0.33355 -1.22839,-0.66795 -2.05447,-0.68723c-0.83198,-0.01327 -1.5786,0.25675 -2.14803,0.56327c-0.37203,0.19799 -0.65161,0.40035 -0.80069,0.51638c-1.44331,-1.54492 -2.56266,-2.88633 -3.35963,-3.89035c-0.4131,-0.52361 -0.75611,-0.94253 -1.01732,-1.25328c0.01815,-0.19892 0.0391,-0.53112 0.02844,-0.9329c-0.02036,-0.65904 -0.16167,-1.47197 -0.60477,-2.18356c-0.42358,-0.72368 -1.10082,-1.20795 -1.67902,-1.5247c-0.57115,-0.31857 -1.02379,-0.47373 -1.02379,-0.47373s-0.14595,0.47312 -0.15854,1.13566c-0.00737,0.65683 0.10433,1.51837 0.55195,2.28045c0.46747,0.75065 1.2002,1.23016 1.78953,1.52072c0.35908,0.17967 0.67987,0.28099 0.87544,0.33285c0.21028,0.3479 0.50486,0.80446 0.87408,1.36658c0.71251,1.07909 1.76256,2.50004 3.15748,4.12781c-0.13173,0.13468 -0.36489,0.39175 -0.60149,0.74725c-0.3502,0.53115 -0.72596,1.30451 -0.68953,2.16503c0.02992,0.86517 0.4311,1.68616 0.82288,2.28665c0.40385,0.58858 0.8058,0.94655 0.8058,0.94655s0.32472,-0.34922 0.63248,-0.91326c0.31093,-0.56728 0.5924,-1.3326 0.55751,-2.19167c-0.02761,-0.77764 -0.3214,-1.48383 -0.63782,-2.02822c0.05175,0.05752 0.10236,0.11446 0.15491,0.17238c1.92429,2.12116 4.41511,4.48667 7.47724,6.73807c0.08758,0.06458 0.17723,0.12869 0.26572,0.19306c-0.09782,0.1718 -0.22438,0.4183 -0.33927,0.71709c-0.22893,0.5982 -0.40914,1.40754 -0.20003,2.2596c0.20012,0.86379 0.78214,1.56046 1.305,2.04767c0.52138,0.48944 0.9813,0.76785 0.9813,0.76785s0.24094,-0.41116 0.42002,-1.03216c0.18,-0.62092 0.30069,-1.45011 0.07585,-2.27474c-0.15337,-0.54964 -0.44064,-1.02932 -0.74869,-1.43742c2.6558,1.79075 5.66963,3.46595 8.95778,4.86569c0.20868,0.08984 0.4175,0.1769 0.62631,0.26332c-0.06349,0.239 -0.1301,0.54034 -0.17537,0.88355c-0.11221,0.85498 -0.08938,1.97046 0.47321,3.02112c0.5555,1.06879 1.56902,1.79917 2.4345,2.26728c0.43189,0.23577 0.8246,0.41323 1.11197,0.519c0.28908,0.09988 0.4682,0.14589 0.4682,0.14589s0.17015,-0.62102 0.18248,-1.48656c0.01011,-0.85844 -0.12211,-1.99134 -0.69639,-2.99923c-0.2878,-0.50374 -0.65892,-0.92957 -1.05448,-1.28478c-0.01615,-0.01486 -0.03258,-0.02847 -0.04877,-0.04316c2.91855,1.0125 5.80327,1.71404 8.51797,2.17164c0.33783,0.05633 0.6721,0.10799 1.0046,0.15749c-0.01099,0.19846 -0.01444,0.4807 0.01753,0.80752c0.06306,0.6381 0.26384,1.4521 0.83137,2.124c0.57034,0.64704 1.39964,1.02399 2.08218,1.23734c0.68205,0.22379 1.22007,0.23939 1.22007,0.23939s0.03109,-0.47557 -0.08636,-1.1057c-0.11788,-0.62462 -0.38054,-1.41626 -0.94917,-2.06676c-0.41082,-0.46651 -0.9255,-0.78556 -1.41733,-1.00801c2.69506,0.31882 5.1753,0.41411 7.33544,0.34143c0.36649,-0.01203 0.72353,-0.027 1.07134,-0.04447c0.01845,0.18976 0.06496,0.53005 0.18117,0.9301c0.17935,0.61453 0.52544,1.36768 1.20731,1.91972c0.68205,0.56623 1.56687,0.77583 2.27711,0.84269c0.71158,0.07319 1.24636,0.01567 1.24636,0.01567s-0.05701,-0.47283 -0.28936,-1.07614c-0.23237,-0.60271 -0.63766,-1.335 -1.3159,-1.85512c-0.33934,-0.25948 -0.71506,-0.442 -1.08793,-0.56871c-0.3608,-0.13326 -0.71987,-0.22576 -1.04127,-0.27976c1.83625,-0.13015 3.35692,-0.33015 4.49245,-0.54399c0.7863,-0.14696 1.39419,-0.26838 1.8031,-0.36713c0.40555,-0.11702 0.61451,-0.19689 0.60762,-0.23663c-0.00737,-0.03921 -0.22981,-0.03636 -0.6467,0.00586z" fill="#679E73"/>
    <path stroke="null" id="svg_5" d="m13.44874,79.45897c0.37121,0.53177 0.91637,1.12589 1.64283,1.44086c0.74991,0.33343 1.59885,0.2779 2.22039,0.16017c0.62887,-0.12165 1.06419,-0.31685 1.06419,-0.31685s-0.04647,-0.10398 -0.13964,-0.26852c-0.09282,-0.16576 -0.23988,-0.38786 -0.40963,-0.6408c-0.35119,-0.50072 -0.89135,-1.07896 -1.65112,-1.40695c-0.75151,-0.3306 -1.55699,-0.35749 -2.19698,-0.28971c-0.41139,0.04266 -0.74411,0.12312 -0.92832,0.17469c-0.10965,-0.32542 -0.21981,-0.66008 -0.32997,-1.00442c-0.63299,-2.02958 -1.25104,-4.38628 -1.7228,-7.00477c0.25849,0.46451 0.61478,0.93531 1.10496,1.2689c0.70879,0.45868 1.52474,0.56803 2.16421,0.56577c0.63969,-0.00249 1.10295,-0.11354 1.10295,-0.11354s-0.10024,-0.44298 -0.37768,-0.99334c-0.25898,-0.55461 -0.66565,-1.2261 -1.34915,-1.68965c-0.68586,-0.46297 -1.48858,-0.63641 -2.11869,-0.69046c-0.32208,-0.02717 -0.60163,-0.02261 -0.79939,-0.01152c-0.04855,-0.3263 -0.09546,-0.6549 -0.13879,-0.98821c-0.34928,-2.67707 -0.52824,-5.57685 -0.45537,-8.60101c0.21406,0.50572 0.51455,1.00408 0.91186,1.42376c0.76241,0.80663 1.83704,1.1718 2.67912,1.3423c0.84731,0.16937 1.49093,0.1492 1.49093,0.1492s-0.00399,-0.1499 -0.03548,-0.39719c-0.03548,-0.24754 -0.09078,-0.5923 -0.17196,-0.98649c-0.16241,-0.78781 -0.5822,-1.77046 -1.29591,-2.57396c-0.7345,-0.80253 -1.74355,-1.2767 -2.56813,-1.5438c-0.32926,-0.1069 -0.62826,-0.17963 -0.86994,-0.22892c0.01687,-0.22097 0.03428,-0.44215 0.05405,-0.66405c0.31747,-3.47793 0.94356,-6.78718 1.76733,-9.8107c0.03993,0.49728 0.15774,1.02868 0.42661,1.5061c0.39747,0.71966 1.09579,1.18618 1.66819,1.4698c0.57483,0.28393 1.03959,0.39176 1.03961,0.39164c0,0 0.0255,-0.11108 0.04993,-0.29885c0.02018,-0.18927 0.0488,-0.45296 0.06514,-0.75716c0.02285,-0.61126 -0.05894,-1.39895 -0.46567,-2.1199c-0.39824,-0.71761 -1.02353,-1.22603 -1.574,-1.5587c-0.27391,-0.16652 -0.5243,-0.28675 -0.70591,-0.36528c0.03166,-0.10269 0.06275,-0.20635 0.09484,-0.30826c1.1135,-3.55452 2.48201,-6.63304 3.77718,-9.13953c0.03324,-0.06329 0.06613,-0.1246 0.09929,-0.18718c-0.07046,0.26239 -0.12866,0.55005 -0.15239,0.85175c-0.01643,0.3921 0.01954,0.80368 0.14474,1.20267c0.24968,0.79847 0.80786,1.3958 1.30254,1.79647c0.49537,0.40012 0.9249,0.60679 0.9249,0.60679s0.20963,-0.40279 0.35294,-0.99962c0.07215,-0.29827 0.12769,-0.64607 0.1335,-1.01883c0.01376,-0.36893 -0.00838,-0.75566 -0.12245,-1.14836c-0.22423,-0.78378 -0.74239,-1.42738 -1.20577,-1.87209c-0.30138,-0.2897 -0.57955,-0.49336 -0.73762,-0.60071c1.56015,-2.81072 2.89821,-4.75277 3.54951,-5.74323c0.19686,-0.04248 0.52065,-0.12426 0.8907,-0.26554c0.59731,-0.24115 1.35004,-0.60671 1.89744,-1.2413c0.27248,-0.31956 0.46762,-0.6794 0.60993,-1.04257c0.15501,-0.35116 0.25674,-0.70575 0.32321,-1.02433c0.13337,-0.63668 0.12874,-1.12696 0.12874,-1.12696s-0.48207,0.0188 -1.12164,0.20521c-0.32005,0.09317 -0.6791,0.22812 -1.03403,0.42198c-0.34215,0.20503 -0.6787,0.46945 -0.96557,0.80537c-0.57753,0.67006 -0.83105,1.49555 -0.90291,2.16465c-0.05039,0.4015 -0.04923,0.73514 -0.04058,0.93622c-0.27296,0.30269 -0.62498,0.71893 -1.04145,1.24891c-0.24118,0.31904 -0.50931,0.67354 -0.8027,1.06152c-0.29928,0.38488 -0.60217,0.81791 -0.91115,1.29505c-0.31381,0.47452 -0.64925,0.9821 -1.00484,1.52003c-0.07728,0.13133 -0.15582,0.26476 -0.23515,0.39961c-0.16931,-0.0836 -0.48653,-0.22542 -0.89355,-0.33857c-0.61674,-0.17112 -1.43887,-0.2725 -2.26601,0.01791c-0.41165,0.14576 -0.79251,0.37168 -1.11422,0.63785c-0.31423,0.27013 -0.58273,0.5731 -0.80053,0.85639c-0.43638,0.56678 -0.6685,1.05183 -0.6685,1.05183s0.4327,0.20046 1.06765,0.31958c0.63474,0.1192 1.47038,0.15994 2.26903,-0.14392c0.39941,-0.15192 0.75149,-0.37575 1.05535,-0.62634c0.2487,-0.1905 0.46879,-0.39618 0.65848,-0.59759c-0.03634,0.06177 -0.07207,0.12253 -0.10875,0.18491c-1.40788,2.49415 -2.88115,5.59548 -4.07375,9.20308c-0.03428,0.1032 -0.06748,0.20826 -0.10129,0.3123c-0.19437,-0.03993 -0.47069,-0.08437 -0.79512,-0.1011c-0.63807,-0.03175 -1.48379,0.04303 -2.21958,0.50883c-0.72638,0.46789 -1.22426,1.2326 -1.53861,1.87656c-0.16212,0.32091 -0.26523,0.61481 -0.32254,0.82902c-0.06163,0.2133 -0.08818,0.34471 -0.08818,0.34471s0.4659,0.10154 1.10657,0.07822c0.64347,-0.0222 1.44486,-0.17045 2.17812,-0.63569c0.48439,-0.31283 0.85826,-0.73164 1.14434,-1.15199c-0.88086,3.07844 -1.54366,6.45993 -1.86805,10.01671c-0.02023,0.22702 -0.03792,0.45328 -0.05503,0.67937c-0.24342,0.01354 -0.54442,0.04294 -0.87856,0.10389c-0.85009,0.1561 -1.909,0.52017 -2.74352,1.37701c-0.85621,0.85477 -1.20457,2.04536 -1.41197,3.01111c-0.10393,0.48349 -0.1348,0.91103 -0.1395,1.21715c-0.0086,0.30617 0.00142,0.49076 0.00142,0.49076s0.64314,-0.02884 1.47301,-0.28283c0.83535,-0.25361 1.82851,-0.72673 2.63047,-1.58234c0.41529,-0.44342 0.70863,-0.94659 0.93195,-1.44937c-0.06105,3.08547 0.15074,6.04305 0.54927,8.76513c0.04945,0.33868 0.10283,0.67236 0.15797,1.0036c-0.19297,0.05055 -0.46666,0.13492 -0.77354,0.26857c-0.59565,0.25828 -1.30285,0.69968 -1.7439,1.44412c-0.44428,0.74402 -0.56579,1.6547 -0.5528,2.37003c0.03148,0.71171 0.16636,1.2324 0.16636,1.2324s0.46212,-0.11731 1.02702,-0.4257c0.5649,-0.30714 1.23276,-0.80225 1.64945,-1.53926c0.31798,-0.53367 0.47132,-1.1215 0.53721,-1.65778c0.53414,2.65852 1.22942,5.03937 1.94753,7.07437c0.12858,0.34375 0.25384,0.67867 0.37594,1.00512c-0.17527,0.07699 -0.48392,0.22712 -0.82828,0.46184c-0.52705,0.36065 -1.15558,0.9317 -1.45935,1.74723c-0.29639,0.81226 -0.2308,1.72295 -0.09241,2.42646c0.06329,0.35388 0.17048,0.64568 0.2486,0.85378c0.07909,0.2076 0.1371,0.32885 0.1371,0.32885s0.43204,-0.20152 0.92887,-0.60788c0.5045,-0.40963 1.04296,-1.00773 1.3466,-1.82269c0.29092,-0.79988 0.25407,-1.63965 0.14039,-2.29026c0.22597,0.52188 0.44148,1.01794 0.64334,1.48391c0.43453,1.05037 0.92473,1.90268 1.27736,2.61855c0.75456,1.40945 1.26589,2.13561 1.32533,2.10276c0.15497,-0.07709 -1.09106,-2.36731 -2.53616,-6.41671z" fill="#679E73"/>
    <path stroke="null" id="svg_6" d="m25.12825,22.38302c0.32281,-0.26863 0.79459,-0.66737 1.38672,-1.19421c0.8556,-0.75886 2.01369,-1.73575 3.45391,-2.839c-0.2016,0.24857 -0.40738,0.54295 -0.57458,0.8734c-0.16614,0.3538 -0.28675,0.75075 -0.32254,1.16716c-0.071,0.83382 0.21938,1.59831 0.52539,2.15688c0.30651,0.55818 0.6262,0.91198 0.6262,0.91198s0.34692,-0.294 0.70582,-0.79298c0.17944,-0.24956 0.36257,-0.55068 0.50905,-0.89373c0.15639,-0.33202 0.27913,-0.70286 0.32259,-1.10881c0.08798,-0.81162 -0.14831,-1.6035 -0.40919,-2.19054c-0.16649,-0.37471 -0.34345,-0.66471 -0.44992,-0.82592c0.27629,-0.20441 0.56113,-0.41212 0.855,-0.62285c1.72909,-1.23872 3.78,-2.55931 6.12665,-3.81913c-0.36351,0.38924 -0.693,0.8921 -0.85494,1.47057c-0.22481,0.80339 -0.08047,1.60659 0.11753,2.21074c0.19834,0.60407 0.44737,1.0106 0.44737,1.0106s0.3966,-0.22254 0.84272,-0.64338c0.4479,-0.41782 0.93786,-1.05444 1.18301,-1.81873c0.23795,-0.77789 0.15143,-1.59841 0.00372,-2.22237c-0.07699,-0.32422 -0.17107,-0.59439 -0.24392,-0.77994c0.29484,-0.14676 0.59237,-0.29269 0.89549,-0.43663c2.43549,-1.16046 5.13598,-2.21897 8.0295,-3.08488c-0.41328,0.34958 -0.79365,0.77365 -1.06238,1.2913c-0.51751,1.01086 -0.54099,2.11587 -0.44058,2.97002c0.1007,0.8542 0.32013,1.45931 0.32013,1.45931s0.56703,-0.18755 1.25113,-0.62562c0.68515,-0.43902 1.5165,-1.051 2.0414,-2.03464c0.5302,-0.96142 0.67442,-2.04189 0.67126,-2.91126c0.00003,-0.34358 -0.0231,-0.64859 -0.05086,-0.89264c0.21542,-0.05285 0.43118,-0.10525 0.64835,-0.1558c3.40174,-0.80838 6.75052,-1.21018 9.88494,-1.34912c-0.46485,0.18652 -0.93906,0.45849 -1.31432,0.86053c-0.56076,0.62615 -0.79113,1.42188 -0.88538,2.05312c-0.09361,0.63315 -0.05375,1.1081 -0.05375,1.1081s0.45274,-0.03408 1.03891,-0.22655c0.58893,-0.16314 1.31344,-0.47327 1.87487,-1.07732c0.56073,-0.61045 0.85246,-1.37271 1.00052,-1.98996c0.07417,-0.30917 0.11169,-0.5826 0.13068,-0.77912c0.10767,-0.00151 0.21612,-0.00375 0.32317,-0.00469c3.72414,-0.02423 7.07676,0.31543 9.86184,0.77405c0.06584,0.01171 0.12988,0.02352 0.1951,0.03528c-0.61585,0.04177 -1.34231,0.21965 -1.94441,0.63681c-0.68164,0.47876 -1.07595,1.18062 -1.30566,1.78658c-0.2292,0.60016 -0.29255,1.07269 -0.29255,1.07269s0.11344,0.01272 0.30201,0.02109c0.18853,0.01544 0.45314,0.02605 0.75918,0.00641c0.61166,-0.03636 1.39213,-0.20613 2.07002,-0.67062c0.67422,-0.44697 1.12442,-1.13427 1.40296,-1.70999c0.18403,-0.38005 0.29164,-0.71095 0.34381,-0.89279c2.07497,0.40517 3.77255,0.81376 5.00508,1.16692c0.6467,0.17039 1.17054,0.30804 1.56254,0.41108c0.01818,0.03032 0.03823,0.06339 0.06108,0.10021c0.1047,0.17586 0.26007,0.41589 0.46226,0.67388c0.40401,0.52098 0.99744,1.09143 1.77298,1.40849c0.76766,0.33648 1.59997,0.33055 2.25414,0.24688c0.32889,-0.04699 0.60026,-0.09029 0.79662,-0.13691c0.1955,-0.04459 0.31053,-0.08185 0.31053,-0.08185s-0.04094,-0.11522 -0.12834,-0.30052c-0.08805,-0.1828 -0.2176,-0.4472 -0.41071,-0.71055c-0.38005,-0.53637 -0.97694,-1.16734 -1.78775,-1.52155c-0.81841,-0.33481 -1.6945,-0.28788 -2.34228,-0.1764c-0.32538,0.05765 -0.5969,0.13556 -0.78699,0.19922c-0.04348,0.01532 -0.08221,0.02983 -0.11704,0.04336c-0.37357,-0.16106 -0.88246,-0.34952 -1.51085,-0.58653c-1.20819,-0.46332 -2.89705,-0.97734 -4.98183,-1.47777c0.02687,-0.18767 0.06289,-0.5329 0.04463,-0.955c-0.02813,-0.64162 -0.18586,-1.45944 -0.71552,-2.16514c-0.5327,-0.68791 -1.3425,-1.09683 -2.01293,-1.3472c-0.33509,-0.12383 -0.63625,-0.20531 -0.85265,-0.25553c-0.21793,-0.04346 -0.35128,-0.05489 -0.35128,-0.05489s-0.05725,0.47318 0.02599,1.10805c0.08347,0.62903 0.30078,1.4502 0.83523,2.12066c0.47866,0.60874 1.13171,0.98538 1.70539,1.24622c-0.07334,-0.0161 -0.14542,-0.03228 -0.21958,-0.04833c-2.80784,-0.56936 -6.21152,-1.00178 -10.01076,-1.03643c-0.1086,-0.00076 -0.21867,-0.00007 -0.32793,-0.00019c-0.02149,-0.19768 -0.06384,-0.47603 -0.14763,-0.79252c-0.16617,-0.62554 -0.49595,-1.39676 -1.1651,-1.94259c-0.66852,-0.55268 -1.54956,-0.80102 -2.25932,-0.90538c-0.70861,-0.0745 -1.24413,-0.01834 -1.24413,-0.01834s0.04696,0.47453 0.26648,1.07889c0.21873,0.60579 0.60722,1.33515 1.27293,1.86326c0.44258,0.36546 0.95101,0.59627 1.43511,0.74395c-3.19709,0.10249 -6.61906,0.49175 -10.09141,1.31649c-0.22192,0.05162 -0.44239,0.10532 -0.6625,0.15949c-0.08858,-0.22822 -0.21038,-0.50707 -0.37294,-0.80833c-0.41122,-0.75665 -1.09299,-1.67655 -2.16331,-2.18955c-1.06333,-0.49178 -2.33161,-0.54525 -3.30155,-0.40217c-0.97171,0.14257 -1.66786,0.39854 -1.66786,0.39854s0.22778,0.60255 0.72835,1.31614c0.50053,0.71374 1.26894,1.54089 2.32025,2.00128c0.54959,0.24487 1.12689,0.3823 1.67996,0.44741c-2.95619,0.89739 -5.70789,2.00719 -8.17556,3.2311c-0.30717,0.1518 -0.60839,0.30582 -0.90675,0.46077c-0.10785,-0.16631 -0.27007,-0.39434 -0.48558,-0.63668c-0.42689,-0.47839 -1.06375,-1.01044 -1.91736,-1.21713c-0.86091,-0.22094 -1.73969,-0.01336 -2.41596,0.21962c-0.675,0.23621 -1.13424,0.51515 -1.13424,0.51515s0.25502,0.4033 0.72421,0.8482c0.46897,0.44566 1.15023,0.93449 1.98695,1.11488c0.60016,0.12997 1.1949,0.07757 1.72433,-0.02405c-2.36135,1.32966 -4.40796,2.72922 -6.11384,4.04913c-0.28974,0.22447 -0.56997,0.44597 -0.84113,0.66425c-0.12608,-0.14202 -0.36516,-0.39127 -0.69663,-0.6477c-0.50613,-0.39098 -1.22865,-0.79533 -2.10285,-0.83903c-0.43672,-0.02132 -0.87126,0.04755 -1.27275,0.16747c-0.3929,0.13127 -0.75545,0.30978 -1.06437,0.48929c-0.61748,0.35944 -1.01524,0.72039 -1.01524,0.72039s0.32413,0.34946 0.86687,0.70019c0.54212,0.35092 1.29999,0.70486 2.15327,0.72596c0.42778,0.01118 0.83655,-0.06507 1.21491,-0.17907c0.37217,-0.09994 0.71051,-0.23973 1.00148,-0.38386c-1.40661,1.1835 -2.51481,2.24124 -3.30809,3.07922c-0.54924,0.58153 -0.97181,1.03485 -1.24197,1.35764c-0.26007,0.33248 -0.38241,0.52012 -0.35355,0.54778s0.20786,-0.10562 0.52053,-0.38365z" fill="#679E73"/>
    <path stroke="null" id="svg_7" d="m120.77237,53.11774c0.48398,-0.7181 0.64125,-1.61868 0.67755,-2.33528c0.0219,-0.715 -0.09569,-1.24044 -0.09569,-1.24044s-0.46802,0.09171 -1.04837,0.36781c-0.586,0.27655 -1.25866,0.7302 -1.73873,1.44669c-0.42983,0.63893 -0.60833,1.37344 -0.67418,1.99551c-0.00891,-0.06999 -0.01578,-0.13896 -0.02595,-0.20949c-0.30782,-2.84761 -0.93422,-6.22629 -2.09413,-9.84534c-0.03313,-0.10389 -0.06824,-0.2086 -0.10224,-0.31286c0.17988,-0.08176 0.42639,-0.20703 0.69384,-0.38144c0.53594,-0.34963 1.15577,-0.89935 1.48478,-1.71143c0.16287,-0.40521 0.24415,-0.8399 0.25809,-1.2576c0.00575,-0.41403 -0.0441,-0.81563 -0.11226,-1.1662c-0.13666,-0.70157 -0.34652,-1.19636 -0.34652,-1.19636s-0.43641,0.19152 -0.94592,0.58924c-0.50969,0.39677 -1.09246,0.99699 -1.39293,1.79666c-0.15017,0.40001 -0.21572,0.81233 -0.22825,1.20605c-0.00937,0.13062 -0.01173,0.25816 -0.0113,0.38384c-1.10107,-3.00413 -2.55863,-6.12336 -4.39309,-9.18424c-0.11581,-0.19545 -0.2334,-0.38866 -0.35141,-0.58137c0.19143,-0.15579 0.42174,-0.36004 0.65963,-0.6107c0.59393,-0.62562 1.23249,-1.54159 1.39652,-2.72206c0.18093,-1.19112 -0.21504,-2.37269 -0.6315,-3.26448c-0.40534,-0.90123 -0.88929,-1.46347 -0.88962,-1.46352c0.00033,0.00004 -0.50266,0.40189 -1.02368,1.09538c-0.51768,0.68978 -1.06035,1.6704 -1.19871,2.82948c-0.06538,0.5948 -0.00982,1.17401 0.10129,1.71241c-1.76354,-2.52973 -3.68324,-4.78799 -5.60092,-6.75657c-0.23897,-0.2449 -0.47815,-0.48349 -0.7173,-0.71911c0.12656,-0.15429 0.29815,-0.38269 0.46848,-0.67179c0.33049,-0.55937 0.64077,-1.32905 0.56284,-2.19218c-0.07809,-0.86188 -0.50871,-1.67509 -0.94422,-2.24041c-0.44224,-0.55888 -0.85617,-0.90168 -0.85617,-0.90168s-0.30533,0.36635 -0.58208,0.94723c-0.27735,0.58064 -0.52836,1.374 -0.43367,2.21583c0.05985,0.61398 0.27886,1.18094 0.53915,1.65443c-1.99302,-1.83759 -3.95251,-3.35727 -5.72863,-4.58253c-0.30521,-0.20304 -0.6029,-0.40093 -0.89324,-0.59386c0.09662,-0.16465 0.25924,-0.46811 0.4014,-0.86195c0.21399,-0.59916 0.39406,-1.43933 0.15461,-2.26781c-0.23571,-0.83305 -0.82174,-1.53416 -1.3458,-2.02398c-0.53064,-0.4798 -1.00912,-0.72854 -1.00912,-0.72854s-0.23184,0.41672 -0.39587,1.0378c-0.16722,0.62649 -0.2545,1.43208 -0.01843,2.26271c0.23172,0.81622 0.75,1.47412 1.22167,1.93569c-0.48604,-0.28896 -0.94884,-0.56371 -1.38341,-0.82185c-0.48478,-0.29723 -0.95225,-0.54512 -1.387,-0.76465c-0.43319,-0.22179 -0.82833,-0.42421 -1.1847,-0.60655c-1.4409,-0.69272 -2.27814,-0.98636 -2.30772,-0.9231c-0.08135,0.15601 2.27904,1.27383 5.82692,3.71183c-0.61307,-0.21551 -1.40644,-0.38024 -2.18206,-0.20994c-0.80749,0.17794 -1.45929,0.71543 -1.89374,1.17712c-0.43834,0.46719 -0.67556,0.88056 -0.67556,0.88056c0,-0.00015 0.39677,0.2199 0.97991,0.41015c0.57618,0.20083 1.35192,0.3541 2.1586,0.17528c0.8098,-0.18345 1.47157,-0.62504 1.95135,-1.05762c0.30717,-0.2749 0.52931,-0.5345 0.64863,-0.68444c0.27956,0.1996 0.56482,0.40649 0.85581,0.62129c1.70362,1.27066 3.5857,2.81594 5.50495,4.6575c-0.48058,-0.22456 -1.04388,-0.39652 -1.6395,-0.37435c-0.84263,0.04316 -1.56638,0.43334 -2.08316,0.80987c-0.51559,0.37704 -0.82623,0.73926 -0.82623,0.73926s0.3408,0.30033 0.88803,0.58466c0.54096,0.29167 1.26015,0.60194 2.08635,0.57547c0.8258,-0.02589 1.5801,-0.36013 2.12116,-0.68686c0.27677,-0.16704 0.5001,-0.33466 0.65369,-0.45978c0.23107,0.23552 0.46218,0.47382 0.69319,0.71801c1.8535,1.96388 3.71542,4.19806 5.43489,6.68839c-0.46798,-0.28605 -1.00319,-0.51405 -1.58173,-0.61361c-1.09757,-0.19834 -2.16331,0.12539 -2.95304,0.48927c-0.78489,0.36211 -1.29316,0.75722 -1.29316,0.75722s0.37972,0.46226 0.9794,1.00028c0.61061,0.53045 1.5065,1.09385 2.56269,1.3179c1.07226,0.21213 2.16971,-0.00086 2.99478,-0.27153c0.32354,-0.10605 0.60341,-0.22085 0.82529,-0.32161c0.11588,0.18961 0.23139,0.37972 0.34526,0.57192c1.79637,2.99778 3.24262,6.04224 4.35851,8.97384c-0.07798,-0.09629 -0.15936,-0.1918 -0.24824,-0.28398c-0.28346,-0.27171 -0.61611,-0.51688 -0.99815,-0.68718c-0.76364,-0.341 -1.58118,-0.31706 -2.20881,-0.21109c-0.62799,0.10621 -1.06636,0.29207 -1.06636,0.29207s0.16287,0.42398 0.51584,0.92629c0.17626,0.25168 0.40094,0.52321 0.67611,0.77452c0.26673,0.25448 0.57224,0.49347 0.94291,0.66763c0.73634,0.34961 1.56156,0.38659 2.20171,0.33301c0.32495,-0.02693 0.60139,-0.07788 0.79528,-0.12158c0.03479,0.1014 0.0706,0.20324 0.10458,0.30426c1.19244,3.52976 1.89012,6.82837 2.2974,9.61983c0.01278,0.07012 0.0223,0.13878 0.03381,0.20837c-0.23553,-0.57547 -0.6095,-1.22069 -1.19407,-1.66757c-0.6583,-0.50155 -1.48895,-0.65185 -2.12236,-0.68604c-0.63922,-0.03234 -1.1082,0.05292 -1.1082,0.05292s0.08725,0.44569 0.32017,1.0129c0.21838,0.57001 0.60131,1.26105 1.25852,1.76137c0.66654,0.49943 1.42852,0.71994 2.06915,0.80731c0.41664,0.05826 0.76397,0.05903 0.95283,0.05283c0.01708,0.15352 0.03381,0.30542 0.05136,0.45484c0.06284,0.633 0.16117,1.22757 0.18829,1.7887c0.06372,1.12047 0.17847,2.08605 0.18752,2.87846c0.02436,0.66803 0.04967,1.20952 0.07573,1.61453c-0.13015,0.15039 -0.33828,0.40497 -0.56058,0.73487c-0.37191,0.54464 -0.75622,1.28362 -0.80588,2.12066c-0.05973,0.83627 0.16898,1.62356 0.4515,2.22005c0.27477,0.59433 0.5717,0.98861 0.5717,0.98861s0.37415,-0.29965 0.77363,-0.82743c0.392,-0.52694 0.84115,-1.28539 0.90431,-2.16721c0.05375,-0.88253 -0.23701,-1.70034 -0.54151,-2.28227c-0.19038,-0.35878 -0.39409,-0.63017 -0.52333,-0.78695c0.03671,-0.40483 0.07226,-0.9466 0.10621,-1.6172c0.06115,-0.79911 0.01148,-1.77675 0.00891,-2.91428c0.00362,-0.56954 -0.0656,-1.17414 -0.10107,-1.81846c-0.01085,-0.15209 -0.0211,-0.30671 -0.03172,-0.46297c0.18688,-0.03193 0.52702,-0.10356 0.92413,-0.25107c0.59537,-0.2234 1.35592,-0.62826 1.83035,-1.34627z" fill="#679E73"/>
   </g>
   <g stroke="null" id="svg_8">
    <path stroke="null" id="svg_9" d="m25.3814,98.71068c1.47063,-1.27555 -0.71316,-5.62906 -0.71316,-5.62906c1.8832,1.4454 3.05076,3.5056 5.22087,2.62131c0.98179,-0.62574 0.32155,-1.37311 0.74549,-2.44722c0.36107,-0.9148 0.6496,-1.62924 0.4026,-2.24857l0.00001,-0.00001c-0.02546,-0.0641 -0.05685,-0.1272 -0.09437,-0.18933c-1.02598,-1.69923 -4.07779,-0.34511 -5.31571,0.28178c0.59945,-1.01535 3.21951,-3.03868 2.56423,-4.72936c-0.31872,-0.82209 -1.53242,-0.57839 -2.52913,-0.90037c-1.00227,-0.32377 -1.83055,-0.95151 -2.56607,-0.4564c-1.43751,0.96763 -0.20823,4.93885 -0.20823,4.93885s-2.16065,-2.86348 -3.68126,-2.41252c-0.90037,0.26701 -0.81653,1.20327 -1.20413,2.26737c-0.41021,1.12617 -1.07644,1.67476 -0.51217,2.49297c1.03322,1.49817 5.21131,0.37987 5.21131,0.37987s-3.16378,3.27443 -2.41888,5.00441c0.36985,0.85894 1.5001,0.59862 2.59705,0.85417c1.05039,0.24468 1.8251,0.75885 2.50155,0.17213z" fill="#8C5AA1"/>
    <circle stroke="null" id="svg_10" r="1.24671" cy="91.65049" cx="23.93338" fill="#FFFFFF"/>
   </g>
   <g stroke="null" id="svg_11">
    <path stroke="null" id="svg_12" d="m92.34836,112.01807c2.779,-0.4653 3.36803,-7.49017 3.36803,-7.49017c1.23476,3.20647 1.12165,6.63212 4.4692,7.17799c1.68481,-0.03175 1.43353,-1.45306 2.76784,-2.4596c1.13641,-0.85723 2.032,-1.52179 2.1944,-2.47308l0.00003,-0.00001c0.01695,-0.09839 0.02582,-0.2 0.02635,-0.30505c0.01548,-2.87294 -4.77557,-3.5041 -6.77757,-3.66426c1.5067,-0.8015 6.26964,-1.32268 6.73651,-3.90527c0.2269,-1.25585 -1.45597,-1.87098 -2.44389,-3.02093c-0.9934,-1.15635 -1.54251,-2.55679 -2.82459,-2.50051c-2.50567,0.11 -3.98498,5.94228 -3.98498,5.94228s-0.50704,-5.16722 -2.72537,-5.75805c-1.3135,-0.34984 -1.91662,0.86972 -3.19848,1.89133c-1.35663,1.08119 -2.5935,1.25583 -2.51422,2.69223c0.14521,2.6301 6.14922,4.40259 6.14922,4.40259s-6.37876,1.6559 -6.76461,4.35467c-0.19157,1.33994 1.40079,1.87156 2.56263,3.01513c1.11255,1.09501 1.68122,2.31475 2.95949,2.10073z" fill="#E6007E"/>
    <ellipse stroke="null" id="svg_13" ry="13.3498" rx="13.3498" cy="-1186.70934" cx="-852.74396" fill="#FFFFFF" transform="matrix(0.1474074435568266,-0.0161331152388922,0.0161331152388922,0.1474074435568266,240.76697859831287,263.48561624083936) "/>
   </g>
   <g stroke="null" id="svg_14">
    <path stroke="null" id="svg_15" d="m104.92208,104.5775c1.44725,-1.25528 -0.70183,-5.53957 -0.70183,-5.53957c1.85326,1.42241 3.00226,3.44988 5.13788,2.57964c0.96618,-0.61579 0.31643,-1.35128 0.73364,-2.40831c0.35533,-0.90025 0.63927,-1.60335 0.3962,-2.21282l0.00001,-0.00001c-0.02504,-0.06308 -0.05595,-0.12518 -0.09287,-0.18632c-1.00967,-1.67221 -4.01296,-0.33963 -5.23121,0.2773c0.58991,-0.9992 3.16832,-2.99036 2.52345,-4.65418c-0.31365,-0.80901 -1.50806,-0.5692 -2.48892,-0.88605c-0.98633,-0.31861 -1.80144,-0.93639 -2.52528,-0.44916c-1.41466,0.95224 -0.20493,4.86034 -0.20493,4.86034s-2.12629,-2.81796 -3.62273,-2.37418c-0.88606,0.26277 -0.80356,1.18414 -1.18498,2.23132c-0.40368,1.10828 -1.05931,1.64814 -0.50401,2.45333c1.01679,1.47436 5.12846,0.37382 5.12846,0.37382s-3.11347,3.22238 -2.38042,4.92486c0.36397,0.84528 1.47625,0.5891 2.55576,0.84058c1.03366,0.24081 1.79605,0.74681 2.46177,0.16941z" fill="#8C5AA1"/>
    <circle stroke="null" id="svg_16" r="1.18144" cy="97.70186" cx="103.61483" fill="#FFFFFF"/>
   </g>
   <g stroke="null" id="svg_17">
    <path stroke="null" id="svg_18" d="m89.19465,113.83767c1.13249,-0.98228 -0.54919,-4.33481 -0.54919,-4.33481c1.4502,1.11305 2.34931,2.69958 4.02045,2.01861c0.75606,-0.48187 0.24762,-1.0574 0.57409,-1.88455c0.27804,-0.70446 0.50023,-1.25463 0.31003,-1.73155l0.00001,-0.00001c-0.0196,-0.04936 -0.04377,-0.09796 -0.07267,-0.14579c-0.79008,-1.30853 -3.14019,-0.26575 -4.09348,0.217c0.46162,-0.78189 2.47925,-2.34 1.97465,-3.64196c-0.24544,-0.63306 -1.18009,-0.44541 -1.94761,-0.69334c-0.77182,-0.24934 -1.40966,-0.73274 -1.97607,-0.35146c-1.107,0.74513 -0.16035,3.80328 -0.16035,3.80328s-1.66386,-2.20509 -2.83485,-1.85783c-0.69335,0.20562 -0.62879,0.92662 -0.92727,1.74604c-0.31589,0.86724 -0.82894,1.2897 -0.3944,1.91977c0.79565,1.1537 4.01308,0.29252 4.01308,0.29252s-2.43634,2.52156 -1.86272,3.85377c0.28481,0.66146 1.15519,0.46098 1.99993,0.65777c0.80887,0.18844 1.40545,0.58438 1.92638,0.13256z" fill="#8C5AA1"/>
    <circle stroke="null" id="svg_19" r="0.9245" cy="108.4574" cx="88.17171" fill="#FFFFFF"/>
   </g>
   <g stroke="null" id="svg_20">
    <path stroke="null" id="svg_21" d="m37.95589,15.70987c1.53979,-0.2578 1.86616,-4.15015 1.86616,-4.15015c0.68416,1.77664 0.6215,3.67472 2.4763,3.97718c0.93353,-0.01759 0.79429,-0.80511 1.53359,-1.36282c0.62965,-0.47498 1.12589,-0.84319 1.21587,-1.37029l0.00001,-0.00001c0.00939,-0.05451 0.01429,-0.11081 0.01459,-0.16901c0.00859,-1.59184 -2.64604,-1.94155 -3.75531,-2.0303c0.83483,-0.44409 3.47388,-0.73287 3.73256,-2.16384c0.12573,-0.69583 -0.8067,-1.03667 -1.35408,-1.67383c-0.55042,-0.64071 -0.85468,-1.41667 -1.56505,-1.38549c-1.38834,0.06094 -2.208,3.29249 -2.208,3.29249s-0.28094,-2.86306 -1.51006,-3.19043c-0.72778,-0.19383 -1.06197,0.48189 -1.77221,1.04794c-0.75169,0.59908 -1.437,0.69583 -1.39307,1.49171c0.08046,1.45727 3.40717,2.43939 3.40717,2.43939s-3.53435,0.9175 -3.74813,2.41283c-0.10614,0.74243 0.77615,1.037 1.41991,1.67062c0.61638,0.60674 0.93148,1.28258 1.63974,1.164z" fill="#E6007E"/>
    <ellipse stroke="null" id="svg_22" ry="7.3969" rx="7.3969" cy="-1807.00474" cx="-1230.29406" fill="#FFFFFF" transform="matrix(0.1474074435568266,-0.0161331152388922,0.0161331152388922,0.1474074435568266,250.4420730512926,256.84844076897446) "/>
   </g>
   <g stroke="null" id="svg_23">
    <path stroke="null" id="svg_24" d="m110.6863,44.17159c1.53979,-0.2578 1.86615,-4.15015 1.86615,-4.15015c0.68416,1.77664 0.6215,3.67472 2.4763,3.97718c0.93351,-0.01759 0.79429,-0.80511 1.53359,-1.36282c0.62965,-0.47498 1.12589,-0.84319 1.21589,-1.37029l0.00001,-0.00001c0.00939,-0.05451 0.01429,-0.11081 0.01459,-0.16901c0.00859,-1.59184 -2.64604,-1.94156 -3.75531,-2.0303c0.83483,-0.44409 3.47388,-0.73287 3.73256,-2.16384c0.12571,-0.69584 -0.80672,-1.03667 -1.3541,-1.67383c-0.55042,-0.64071 -0.85468,-1.41667 -1.56505,-1.38549c-1.38835,0.06094 -2.208,3.2925 -2.208,3.2925s-0.28095,-2.86306 -1.51008,-3.19043c-0.72778,-0.19383 -1.06195,0.48189 -1.77221,1.04794c-0.75169,0.59908 -1.437,0.69584 -1.39307,1.49171c0.08046,1.45727 3.40716,2.43939 3.40716,2.43939s-3.53435,0.91751 -3.74813,2.41283c-0.10614,0.74243 0.77615,1.03698 1.41989,1.67062c0.61644,0.60673 0.93154,1.28257 1.63979,1.16399z" fill="#F193BD"/>
    <ellipse stroke="null" id="svg_25" ry="7.3969" rx="7.3969" cy="-1615.06194" cx="-739.80796" fill="#FFFFFF" transform="matrix(0.1474074435568266,-0.0161331152388922,0.0161331152388922,0.1474074435568266,247.77715821892266,264.9305828591155) "/>
   </g>
   <g stroke="null" id="svg_26">
    <path stroke="null" id="svg_27" d="m105.90881,97.10579c1.53979,-0.2578 1.86616,-4.15015 1.86616,-4.15015c0.68414,1.77664 0.62148,3.67472 2.47628,3.97718c0.93353,-0.01759 0.79429,-0.80511 1.53361,-1.36282c0.62965,-0.47498 1.12588,-0.84321 1.21587,-1.37029l0.00001,-0.00001c0.0094,-0.05451 0.01429,-0.11081 0.01459,-0.16901c0.00859,-1.59184 -2.64604,-1.94155 -3.75531,-2.0303c0.83483,-0.44409 3.47388,-0.73287 3.73256,-2.16384c0.12571,-0.69583 -0.80672,-1.03667 -1.3541,-1.67383c-0.55042,-0.64071 -0.85468,-1.41666 -1.56506,-1.38549c-1.38834,0.06094 -2.208,3.2925 -2.208,3.2925s-0.28094,-2.86306 -1.51006,-3.19043c-0.72778,-0.19383 -1.06197,0.48189 -1.77223,1.04794c-0.75167,0.59908 -1.437,0.69584 -1.39307,1.49171c0.08046,1.45729 3.40716,2.43939 3.40716,2.43939s-3.53435,0.91751 -3.74813,2.41283c-0.10614,0.74245 0.77615,1.03698 1.41991,1.67062c0.61644,0.60674 0.93154,1.28258 1.63979,1.16399z" fill="#F193BD"/>
    <ellipse stroke="null" id="svg_28" ry="7.3969" rx="7.3969" cy="-1258.07934" cx="-772.02686" fill="#FFFFFF" transform="matrix(0.1474074435568266,-0.0161331152388922,0.0161331152388922,0.1474074435568266,241.98946243989377,264.7250339221288) "/>
   </g>
   <g stroke="null" id="svg_29">
    <path stroke="null" id="svg_30" d="m15.35658,88.35861c1.66488,-0.27874 2.01777,-4.4873 2.01777,-4.4873c0.73974,1.92098 0.67197,3.97325 2.67746,4.30029c1.00936,-0.01901 0.85882,-0.87052 1.65818,-1.47354c0.68081,-0.51356 1.21735,-0.9117 1.31466,-1.48161l0.00001,-0.00001c0.01016,-0.05894 0.01547,-0.11981 0.01579,-0.18276c0.00928,-1.72116 -2.861,-2.09928 -4.06038,-2.19523c0.90265,-0.48017 3.75609,-0.79241 4.03578,-2.33961c0.13593,-0.75237 -0.87226,-1.1209 -1.46411,-1.80982c-0.59515,-0.69276 -0.92411,-1.53176 -1.6922,-1.49804c-1.50114,0.06588 -2.38737,3.55998 -2.38737,3.55998s-0.30377,-3.09565 -1.63275,-3.44961c-0.7869,-0.20958 -1.14824,0.52105 -1.91619,1.13308c-0.81275,0.64774 -1.55375,0.75237 -1.50624,1.6129c0.087,1.57568 3.68396,2.63757 3.68396,2.63757s-3.82147,0.99204 -4.05263,2.60885c-0.11477,0.80276 0.8392,1.12124 1.53526,1.80635c0.66651,0.65599 1.00721,1.38674 1.77301,1.25852z" fill="#F193BD"/>
    <ellipse stroke="null" id="svg_31" ry="7.9978" rx="7.9978" cy="-1320.01664" cx="-1381.61796" fill="#FFFFFF" transform="matrix(0.1474074435568266,-0.0161331152388922,0.0161331152388922,0.1474074435568266,242.45211807276937,254.835760501768) "/>
   </g>
  </g>
  <text font-style="italic" font-weight="bold" xml:space="preserve" text-anchor="start" font-family="'Palatino Linotype', 'Book Antiqua', Palatino, serif" font-size="24" id="svg_32" y="68.19999" x="30.5" stroke-width="0" stroke="#000" fill="#ea2e7d">Floom</text>
 </g>
</svg>