
<svg width="100" height="100" id="eiwsvmdocf8a1" xmlns="http://www.w3.org/2000/svg" xmlns:xlink="http://www.w3.org/1999/xlink" viewBox="0 0 512 512" shape-rendering="geometricPrecision" text-rendering="geometricPrecision"><style><![CDATA[#eiwsvmdocf8a2_to {animation: eiwsvmdocf8a2_to__to 3000ms linear infinite normal forwards}@keyframes eiwsvmdocf8a2_to__to { 0% {transform: translate(276.658653px,143.401499px)} 66.666667% {transform: translate(276.658653px,172.395184px)} 100% {transform: translate(276.658653px,143.405184px)} }]]></style>
    <g id="eiwsvmdocf8a2_to" transform="translate(276.658653,143.401499)">
    <path id="eiwsvmdocf8a2" d="M388.400000,76.668000C383.351270,
    71.572349,376.473233,68.709141,369.300000,68.717000L347.135000,
    68.676000L350.141000,65.601000C356.758180,59.149482,359.399102,49.640317,
    357.056478,40.700447C354.713853,31.760577,347.748920,24.768553,
    338.818212,22.391241C329.887504,20.013928,320.368158,22.617915,
    313.891000,29.210000L277.315000,65.650000L250.479000,
    38.714000C245.681806,33.872334,239.146773,31.151444,232.331000,
    31.158000L232.282000,31.158000C223.364805,31.165230,215.088667,
    35.794308,210.415198,43.388720C205.741730,50.983133,205.338952,
    60.457340,209.351000,68.421000L184.166000,68.374000L184.115000,
    68.374000C169.208230,68.373976,157.116476,80.444253,157.090000,
    95.351000L157.036000,125.116000C157.033079,126.709204,
    157.663930,128.238155,158.789465,129.365753C159.915000,
    130.493352,161.442793,131.127003,163.036000,
    131.127000L171.912000,131.127000L171.912000,238.250000C171.929083,
    253.168966,184.019034,265.258917,198.938000,265.276000L354.379000,
    265.276000C369.297966,265.258917,381.387917,253.168966,381.405000,
    238.250000L381.405000,131.127000L390.228000,131.127000C393.537417,
    131.127006,396.221933,128.447412,396.228000,125.138000L396.281000,
    95.794000C396.314328,88.621879,393.476389,81.734627,388.400000,
    76.668000ZM322.359000,37.711000C327.728312,32.391669,336.393169,
    32.432188,341.712500,37.801500C347.031831,43.170812,346.991312,
    51.835669,341.622000,57.155000L330.460000,68.569000L291.385000,
    68.569000ZM222.625000,47.148000C225.184147,44.584346,228.660644,
    43.148104,232.283000,43.158000L232.309000,43.158000C235.940578,
    43.155095,239.422477,44.604746,241.979000,47.184000L263.236000,
    68.521000L224.252000,68.170000L222.589000,66.500000C217.254945,
    61.145798,217.271062,52.481320,222.625000,47.147000ZM244.572000,
    253.276000L198.938000,253.276000C190.643253,253.266631,183.921369,
    246.544747,183.912000,238.250000L183.912000,131.127000L244.636000,
    131.127000ZM244.642000,119.127000L169.047000,119.127000L169.090000,
    95.373000C169.104341,87.084915,175.826903,80.373539,184.115000,
    80.373000L184.145000,80.373000L244.662000,80.485000ZM298.030000,
    253.276000L256.572000,253.276000L256.636000,131.127000L298.093000,
    131.127000ZM298.099000,119.127000L256.642000,119.127000L256.662000,
    80.508000L298.119000,80.585000ZM369.405000,238.250000C369.395631,
    246.544747,362.673747,253.266631,354.379000,253.276000L310.030000,
    253.276000L310.093000,131.127000L369.405000,131.127000ZM384.238000,
    119.127000L310.100000,119.127000L310.120000,80.607000L369.284000,
    80.717000C373.269492,80.723889,377.088982,82.313867,379.902086,
    85.137099C382.715191,87.960330,384.291433,91.785509,384.284000,
    95.771000Z"
    transform="translate(-276.658653,-143.401499)" fill="rgb(0,0,0)" stroke="none" stroke-width="1"/></g>

    <path id="eiwsvmdocf8a3" d="M450.022000,310.982000L446.836000,312.701000C436.371000,
    299.577000,417.870000,294.409000,403.828000,301.527000C403.783000,301.550000,
    403.738000,301.573000,403.694000,301.597000L396.980000,305.214000C381.877525,
    292.148227,360.160804,290.070644,342.855000,300.036000L308.890000,
    318.505000L263.732000,318.505000C253.885365,318.492083,
    244.167663,316.265152,235.298000,311.989000L229.112000
    ,309C193.442818,291.643359,151.049280,295.783395,119.412000,
    319.713000C119.281000,319.813000,119.153000,319.913000,119.030000,
    320.025000L104.100000,333.320000C98.656000,338.164000,42.430000,
    367.700000,8.267000,385.181000C6.358666,386.157407,5.116199,
    388.077728,5.007625,390.218597C4.899051,392.359467,5.940865,
    394.395635,7.740625,395.560097C9.540386,396.724560,11.824666,
    396.840407,13.733000,395.864000C28.717000,388.197000,103.876000,
    349.584000,112.077000,342.283000L126.824000,329.153000C154.858354,
    308.063416,192.342816,304.451833,223.888000,319.801000L230.073000,
    322.792000C240.572686,327.853480,252.076026,330.489484,263.732000,
    330.505000L323.719000,330.505000C342.597377,330.529736,358.697679,
    344.184090,361.805000,362.805000L317.423000,360.800000C301.661100,
    360.091670,285.867442,360.821355,270.238000,362.980000C268.096178,
    363.252756,266.266072,364.655260,265.445811,366.652500C264.625550,
    368.649740,264.941644,370.933683,266.273511,372.633072C267.605378,
    374.332462,269.747607,375.185203,271.883000,374.866000C286.788627,
    372.806646,301.851019,372.111099,316.883000,372.788000L368.050000,
    375.104000C369.687713,375.178046,371.284402,374.578748,372.468935,
    373.445404C373.653468,372.312060,374.322673,370.743385,374.321000,
    369.104000C374.321000,367.873000,374.262000,366.656000,374.175000,
    365.446000L381.606000,361.528000L455.725000,321.543000C467.996726,
    314.898288,483.226400,317.559921,492.517000,327.973000L342,
    431.319000C322.211366,440.964025,299.870476,444.073891,
    278.200000,440.200000L188.229000,423.632000C178.488347,
    421.224520,168.196153,422.624018,159.452000,427.545000L69.310000,
    479.070000C67.438037,480.128258,66.275546,482.107387,66.262854,
    484.257735C66.250162,486.408083,67.389211,488.400796,69.248552,
    489.481077C71.107893,490.561358,73.403178,490.563999,75.265000,
    489.488000L165.358000,437.988000C171.482445,434.552979,178.690758,
    433.596690,185.499000,435.316000Q185.685000,435.364000,185.874000,
    435.397000L276.044000,452.003000C300.396836,456.359122,325.504525,
    452.814906,347.700000,441.888000C347.954887,441.761900,348.200504,
    441.617872,348.435000,441.457000L504.400000,334.370000C507.017334,
    332.573389,507.782193,329.048898,506.145000,326.329000C494.555934,
    307.022327,469.822777,300.258972,450.022000,310.982000ZM348.657000,
    310.541000L348.800000,310.461000C360.209246,303.864412,374.360062,
    304.251131,385.392000,311.461000L353.826000,328.469000C347.546165,
    323.801045,340.264968,320.660673,332.560000,319.297000ZM375.957000,
    350.941000L371.733000,353.168000C369.796612,347.351826,366.818477,
    341.936358,362.944000,337.186000L409.314000,312.200000C417.634000,308.029000,
    428.906000,311.017000,436.023000,318.536000Z" 
    fill="rgb(0,0,0)" stroke="none" stroke-width="1"/>
</svg>